<svg width="48" height="48" viewBox="0 0 48 48" fill="none" xmlns="http://www.w3.org/2000/svg">
<path fill-rule="evenodd" clip-rule="evenodd" d="M15.3679 7.12231C14.5567 7.57774 2.02293 14.8365 1.6693 15.0557C1.4251 15.2071 1.17454 15.4425 1.11261 15.5787C1.03626 15.7467 1 18.4742 1 24.0548V32.2833L1.2916 32.599C1.45193 32.7726 3.13398 33.8096 5.02938 34.9034C6.92477 35.9973 10.0736 37.8165 12.0269 38.9461C14.1133 40.1528 15.6903 41 15.8497 41C16.2025 41 30.0041 33.0335 30.3985 32.6022L30.6901 32.2833V24.0548C30.6901 18.4311 30.6542 15.7473 30.5766 15.5766C30.4331 15.261 31.136 15.6878 23.0612 11.0138C18.7765 8.53365 16.0178 6.99809 15.8507 7C15.7018 7.00181 15.4845 7.05685 15.3679 7.12231ZM22.3133 12.8835L28.6224 16.5347V23.9984V31.4621L22.3133 35.1133C18.8432 37.1214 15.9354 38.7655 15.8515 38.7665C15.7244 38.7682 9.82804 35.3998 4.36665 32.2056L3.01469 31.4149V23.9973V16.5799L4.47269 15.7296C10.9467 11.9539 15.712 9.23114 15.8451 9.23167C15.9326 9.23199 18.8432 10.8754 22.3133 12.8835ZM5.7624 19.9905C5.37113 20.2915 5.34749 20.5195 5.34749 23.9967C5.34749 28.1049 5.35703 28.1425 6.39799 28.1425C6.68757 28.1425 6.86465 28.0684 7.05212 27.8686C7.30173 27.6025 7.31064 27.5345 7.36217 25.5163L7.41519 23.438L8.299 25.5678C8.78507 26.7391 9.28917 27.7976 9.41917 27.92C9.62308 28.1119 9.78722 28.1425 10.6111 28.1425C11.5012 28.1425 11.5842 28.1237 11.8238 27.8683L12.0808 27.5941V23.9984V20.4027L11.8238 20.1285C11.4626 19.7432 10.7905 19.7431 10.4292 20.1282C10.179 20.3947 10.1708 20.4593 10.1191 22.5258L10.0661 24.6494L9.17688 22.4909C8.68784 21.3038 8.19042 20.2249 8.07156 20.0934C7.87709 19.8783 7.75864 19.8546 6.89307 19.8577C6.30436 19.8597 5.86537 19.9113 5.7624 19.9905ZM14.1404 20.1285L13.8834 20.4027V23.9984V27.5941L14.1404 27.8683C14.3368 28.0778 14.4996 28.1417 14.8297 28.1391C15.6293 28.1329 15.8451 27.7737 15.8451 26.4494V25.486H17.1223C18.337 25.486 18.4123 25.4733 18.6598 25.2252C19.0215 24.8627 19.0215 24.1967 18.6598 23.8342C18.4123 23.5861 18.337 23.5734 17.1223 23.5734H15.8451V22.6702V21.7669H17.6525C19.4302 21.7669 19.4642 21.7627 19.7202 21.5061C19.9118 21.3142 19.9805 21.1305 19.9805 20.8106C19.9805 20.4908 19.9118 20.307 19.7202 20.1151L19.46 19.8543H16.9288H14.3976L14.1404 20.1285ZM20.9827 20.1354C20.6339 20.5127 20.6395 21.014 20.9973 21.44C21.2583 21.7509 21.3103 21.7669 22.0576 21.7669H22.8435V24.5881C22.8435 28.0335 22.8757 28.1425 23.894 28.1425C24.1835 28.1425 24.3605 28.0684 24.5481 27.8685L24.8051 27.5945L24.8364 24.6807L24.8677 21.7669H25.5992C26.2181 21.7669 26.3763 21.7277 26.626 21.5126C27.0208 21.1722 27.0396 20.5241 26.6664 20.1259L26.4117 19.8543H23.8273H21.2428L20.9827 20.1354Z" fill="#212B36"/>
<path fill-rule="evenodd" clip-rule="evenodd" d="M47.4142 0.585786C48.1953 1.36683 48.1953 2.63317 47.4142 3.41421L39.4142 11.4142C38.6332 12.1953 37.3668 12.1953 36.5858 11.4142L32.5858 7.41421C31.8047 6.63316 31.8047 5.36684 32.5858 4.58579C33.3668 3.80474 34.6332 3.80474 35.4142 4.58579L38 7.17157L44.5858 0.585786C45.3668 -0.195262 46.6332 -0.195262 47.4142 0.585786Z" fill="#212B36"/>
</svg>
