<svg width="47" height="48" viewBox="0 0 47 48" fill="none" xmlns="http://www.w3.org/2000/svg">
    <path fill-rule="evenodd" clip-rule="evenodd" d="M4 16C4 9.37258 9.37258 4 16 4C22.6274 4 28 9.37258 28 16C28 20.163 25.8802 23.8308 22.6611 25.983C22.547 26.042 22.4397 26.1115 22.3403 26.1902C20.5006 27.3372 18.3277 28 16 28C9.37258 28 4 22.6274 4 16ZM21.9722 30.8482C20.1269 31.5911 18.1112 32 16 32C13.8896 32 11.8747 31.5914 10.0299 30.849L8.52889 42.1503L14.971 38.285C15.6044 37.905 16.3956 37.905 17.029 38.285L23.4718 42.1507L21.9722 30.8482ZM6.279 28.7094C2.46167 25.7852 0 21.1801 0 16C0 7.16344 7.16344 0 16 0C24.8366 0 32 7.16344 32 16C32 21.1791 29.5393 25.7834 25.7233 28.7077L27.9826 45.737C28.0836 46.4982 27.7398 47.2501 27.098 47.6717C26.4561 48.0933 25.6295 48.1101 24.971 47.715L16 42.3324L7.02899 47.715C6.37045 48.1101 5.54381 48.0933 4.90192 47.6716C4.26004 47.2499 3.91629 46.498 4.01741 45.7367L6.279 28.7094Z" fill="white"/>
    <path d="M32.0215 35.8893C31.7377 35.8893 31.5292 35.8248 31.3962 35.6957C31.272 35.5574 31.2099 35.3592 31.2099 35.101C31.2099 34.9442 31.2498 34.7921 31.3297 34.6445C31.4095 34.497 31.5248 34.3402 31.6756 34.1743L34.3499 31.2144C34.758 30.7718 35.0507 30.3707 35.2281 30.0111C35.4055 29.6422 35.4942 29.2734 35.4942 28.9046C35.4942 28.4435 35.3522 28.0931 35.0684 27.8534C34.7934 27.6136 34.3898 27.4938 33.8576 27.4938C33.5561 27.4938 33.2545 27.5399 32.9529 27.6321C32.6513 27.7151 32.3453 27.8626 32.0348 28.0747C31.8752 28.1853 31.7244 28.2314 31.5825 28.213C31.4494 28.1946 31.3297 28.1346 31.2232 28.0332C31.1257 27.9318 31.0591 27.8073 31.0237 27.6598C30.9882 27.5122 30.9926 27.3647 31.037 27.2172C31.0902 27.0604 31.1966 26.9267 31.3563 26.816C31.7377 26.5486 32.1635 26.3458 32.6336 26.2075C33.1126 26.0692 33.5915 26 34.0705 26C34.7446 26 35.3123 26.106 35.7736 26.3181C36.2348 26.5302 36.5852 26.8391 36.8247 27.2448C37.0642 27.6505 37.1839 28.1438 37.1839 28.7248C37.1839 29.112 37.1218 29.4901 36.9976 29.8589C36.8823 30.2278 36.7005 30.6012 36.4521 30.9793C36.2126 31.3573 35.8978 31.7584 35.5075 32.1826L33.0061 34.8935V34.4232H36.9178C37.1573 34.4232 37.3391 34.4832 37.4633 34.603C37.5875 34.7229 37.6496 34.9027 37.6496 35.1425C37.6496 35.3822 37.5875 35.5666 37.4633 35.6957C37.3391 35.8248 37.1573 35.8893 36.9178 35.8893H32.0215Z" fill="white"/>
    <path d="M43.7248 36C43.4587 36 43.2503 35.9262 43.0995 35.7787C42.9487 35.6219 42.8733 35.4006 42.8733 35.1148V34.036H39.5869C39.312 34.036 39.0902 33.976 38.9217 33.8562C38.762 33.7363 38.6822 33.5473 38.6822 33.2891C38.6822 33.1415 38.7177 32.9802 38.7886 32.805C38.8685 32.6298 39.006 32.3993 39.2011 32.1134L42.8467 26.6224C42.9709 26.4288 43.1084 26.2812 43.2591 26.1798C43.4099 26.0784 43.5829 26.0277 43.778 26.0277C44.0087 26.0277 44.1994 26.1014 44.3502 26.249C44.501 26.3873 44.5764 26.6086 44.5764 26.9129V32.5698H45.2283C45.4855 32.5698 45.6762 32.6344 45.8004 32.7635C45.9335 32.8834 46 33.0632 46 33.3029C46 33.5426 45.9335 33.7271 45.8004 33.8562C45.6762 33.976 45.4855 34.036 45.2283 34.036H44.5764V35.1148C44.5764 35.4006 44.501 35.6219 44.3502 35.7787C44.1994 35.9262 43.9909 36 43.7248 36ZM42.8733 32.5698V28.2545H43.2591L40.1191 33.0401V32.5698H42.8733Z" fill="white"/>
    <path d="M32.0215 35.8893C31.7377 35.8893 31.5292 35.8248 31.3962 35.6957C31.272 35.5574 31.2099 35.3592 31.2099 35.101C31.2099 34.9442 31.2498 34.7921 31.3297 34.6445C31.4095 34.497 31.5248 34.3402 31.6756 34.1743L34.3499 31.2144C34.758 30.7718 35.0507 30.3707 35.2281 30.0111C35.4055 29.6422 35.4942 29.2734 35.4942 28.9046C35.4942 28.4435 35.3522 28.0931 35.0684 27.8534C34.7934 27.6136 34.3898 27.4938 33.8576 27.4938C33.5561 27.4938 33.2545 27.5399 32.9529 27.6321C32.6513 27.7151 32.3453 27.8626 32.0348 28.0747C31.8752 28.1853 31.7244 28.2314 31.5825 28.213C31.4494 28.1946 31.3297 28.1346 31.2232 28.0332C31.1257 27.9318 31.0591 27.8073 31.0237 27.6598C30.9882 27.5122 30.9926 27.3647 31.037 27.2172C31.0902 27.0604 31.1966 26.9267 31.3563 26.816C31.7377 26.5486 32.1635 26.3458 32.6336 26.2075C33.1126 26.0692 33.5915 26 34.0705 26C34.7446 26 35.3123 26.106 35.7736 26.3181C36.2348 26.5302 36.5852 26.8391 36.8247 27.2448C37.0642 27.6505 37.1839 28.1438 37.1839 28.7248C37.1839 29.112 37.1218 29.4901 36.9976 29.8589C36.8823 30.2278 36.7005 30.6012 36.4521 30.9793C36.2126 31.3573 35.8978 31.7584 35.5075 32.1826L33.0061 34.8935V34.4232H36.9178C37.1573 34.4232 37.3391 34.4832 37.4633 34.603C37.5875 34.7229 37.6496 34.9027 37.6496 35.1425C37.6496 35.3822 37.5875 35.5666 37.4633 35.6957C37.3391 35.8248 37.1573 35.8893 36.9178 35.8893H32.0215Z" stroke="white" stroke-width="0.4"/>
    <path d="M43.7248 36C43.4587 36 43.2503 35.9262 43.0995 35.7787C42.9487 35.6219 42.8733 35.4006 42.8733 35.1148V34.036H39.5869C39.312 34.036 39.0902 33.976 38.9217 33.8562C38.762 33.7363 38.6822 33.5473 38.6822 33.2891C38.6822 33.1415 38.7177 32.9802 38.7886 32.805C38.8685 32.6298 39.006 32.3993 39.2011 32.1134L42.8467 26.6224C42.9709 26.4288 43.1084 26.2812 43.2591 26.1798C43.4099 26.0784 43.5829 26.0277 43.778 26.0277C44.0087 26.0277 44.1994 26.1014 44.3502 26.249C44.501 26.3873 44.5764 26.6086 44.5764 26.9129V32.5698H45.2283C45.4855 32.5698 45.6762 32.6344 45.8004 32.7635C45.9335 32.8834 46 33.0632 46 33.3029C46 33.5426 45.9335 33.7271 45.8004 33.8562C45.6762 33.976 45.4855 34.036 45.2283 34.036H44.5764V35.1148C44.5764 35.4006 44.501 35.6219 44.3502 35.7787C44.1994 35.9262 43.9909 36 43.7248 36ZM42.8733 32.5698V28.2545H43.2591L40.1191 33.0401V32.5698H42.8733Z" stroke="white" stroke-width="0.4"/>
</svg>
