<svg width="48" height="40" viewBox="0 0 48 40" fill="none" xmlns="http://www.w3.org/2000/svg">
    <path fill-rule="evenodd" clip-rule="evenodd" d="M2.92893 26.9289C4.8043 25.0536 7.34783 24 10 24H24C26.6522 24 29.1957 25.0536 31.0711 26.9289C32.9464 28.8043 34 31.3478 34 34V38C34 39.1046 33.1046 40 32 40C30.8954 40 30 39.1046 30 38V34C30 32.4087 29.3679 30.8826 28.2426 29.7574C27.1174 28.6321 25.5913 28 24 28H10C8.4087 28 6.88258 28.6321 5.75736 29.7574C4.63214 30.8826 4 32.4087 4 34V38C4 39.1046 3.10457 40 2 40C0.89543 40 0 39.1046 0 38V34C0 31.3478 1.05357 28.8043 2.92893 26.9289Z" fill="#212B36"/>
    <path fill-rule="evenodd" clip-rule="evenodd" d="M17 4C13.6863 4 11 6.68629 11 10C11 13.3137 13.6863 16 17 16C20.3137 16 23 13.3137 23 10C23 6.68629 20.3137 4 17 4ZM7 10C7 4.47715 11.4772 0 17 0C22.5228 0 27 4.47715 27 10C27 15.5228 22.5228 20 17 20C11.4772 20 7 15.5228 7 10Z" fill="#212B36"/>
    <path fill-rule="evenodd" clip-rule="evenodd" d="M34.9999 14.6667C34.9999 11.9052 37.2385 9.66667 39.9999 9.66667C42.7613 9.66667 44.9999 11.9052 44.9999 14.6667C44.9999 16.4012 44.1167 17.9295 42.7754 18.8262C42.7278 18.8508 42.6831 18.8798 42.6417 18.9126C41.8752 19.3905 40.9698 19.6667 39.9999 19.6667C37.2385 19.6667 34.9999 17.4281 34.9999 14.6667ZM42.4883 20.8534C41.7195 21.163 40.8796 21.3333 39.9999 21.3333C39.1206 21.3333 38.281 21.1631 37.5124 20.8538L36.887 25.5626L39.5712 23.9521C39.8351 23.7938 40.1648 23.7938 40.4287 23.9521L43.1132 25.5628L42.4883 20.8534ZM35.9495 19.9622C34.3589 18.7438 33.3333 16.825 33.3333 14.6667C33.3333 10.9848 36.318 8 39.9999 8C43.6818 8 46.6666 10.9848 46.6666 14.6667C46.6666 16.8246 45.6413 18.7431 44.0513 19.9615L44.9927 27.0571C45.0348 27.3743 44.8915 27.6875 44.6241 27.8632C44.3566 28.0389 44.0122 28.0459 43.7378 27.8812L39.9999 25.6385L36.262 27.8812C35.9876 28.0459 35.6432 28.0389 35.3757 27.8632C35.1083 27.6875 34.965 27.3742 35.0072 27.0569L35.9495 19.9622Z" fill="#212B36" stroke="#212B36" stroke-width="0.4" stroke-linecap="round" stroke-linejoin="round"/>
    <path d="M39.9952 17.5833L40.9028 15.5696L42.9166 14.6714L40.9028 13.7638L39.9952 11.75L39.097 13.7638L37.0833 14.6714L39.0954 15.5711L39.9952 17.5833Z" fill="#212B36"/>
</svg>
