<svg width="712" height="1024" viewBox="0 0 712 1024" fill="none" xmlns="http://www.w3.org/2000/svg">
<rect width="712" height="1024" fill="#E68F3C"/>
<path d="M355.79 761.999C498.164 761.999 613.58 695.363 613.58 613.164C613.58 530.964 498.164 464.328 355.79 464.328C213.417 464.328 98 530.964 98 613.164C98 695.363 213.417 761.999 355.79 761.999Z" fill="#F0F0F0"/>
<path d="M503.838 664.806C486.933 655.046 486.933 639.225 503.838 629.465C520.742 619.706 548.15 619.706 565.055 629.465C581.959 639.225 581.959 655.046 565.055 664.806C548.15 674.566 520.742 674.566 503.838 664.806Z" fill="#E0E0E0"/>
<path d="M160.016 666.162L115.55 640.493C113.045 639.049 113.045 636.697 115.55 635.252L374.194 485.924C375.599 485.212 377.153 484.841 378.729 484.841C380.305 484.841 381.858 485.212 383.264 485.924L427.741 511.593C430.246 513.037 430.246 515.389 427.741 516.834L169.097 666.162C167.69 666.874 166.134 667.245 164.557 667.245C162.979 667.245 161.423 666.874 160.016 666.162Z" fill="#E0E0E0"/>
<path d="M319.847 620.405L358.077 598.304C362.015 596.028 363.985 593.052 363.985 590.065C363.985 587.078 363.985 584.747 363.985 584.747L324.333 562.383C323.226 561.667 322.303 560.699 321.642 559.558C320.98 558.417 320.597 557.135 320.526 555.818V508.672L253.783 547.251V594.376C253.86 595.692 254.245 596.971 254.906 598.111C255.567 599.251 256.487 600.22 257.591 600.941L291.334 620.372C299.19 624.957 311.97 624.957 319.847 620.405Z" fill="#FF9F43"/>
<g opacity="0.6">
<path d="M319.847 620.407L358.077 598.306C362.015 596.03 363.985 593.054 363.985 590.067C363.985 587.08 363.985 584.749 363.985 584.749L324.333 562.385C323.226 561.669 322.303 560.701 321.642 559.56C320.98 558.419 320.597 557.137 320.526 555.82V508.674L253.783 547.253V594.378C253.86 595.694 254.245 596.973 254.906 598.113C255.567 599.253 256.487 600.222 257.591 600.943L291.334 620.374C299.19 624.959 311.97 624.959 319.847 620.407Z" fill="#212B36"/>
</g>
<path opacity="0.3" d="M269.791 602.726V608.021L257.558 600.964C256.455 600.245 255.536 599.275 254.876 598.135C254.217 596.994 253.835 595.715 253.762 594.399V547.253L266.476 539.911C266.738 543.139 267.023 546.476 267.296 549.758L258.357 554.901V591.719C258.428 593.036 258.81 594.318 259.472 595.459C260.134 596.6 261.056 597.568 262.165 598.283L269.791 602.726Z" fill="#212B36"/>
<path d="M258.356 591.729C258.432 593.046 258.815 594.326 259.477 595.466C260.138 596.607 261.059 597.575 262.164 598.294L291.29 615.078C299.168 619.619 311.947 619.63 319.836 615.078L358.131 592.977C366.02 588.425 366.02 581.051 358.131 576.499L328.983 559.715C327.881 558.994 326.963 558.025 326.303 556.884C325.644 555.744 325.261 554.465 325.186 553.15V516.321L258.444 554.901L258.356 591.729Z" fill="#FF9F43"/>
<path opacity="0.3" d="M258.356 591.729C258.432 593.046 258.815 594.326 259.477 595.466C260.138 596.607 261.059 597.575 262.164 598.294L291.29 615.078C299.168 619.619 311.947 619.63 319.836 615.078L358.131 592.977C366.02 588.425 366.02 581.051 358.131 576.499L328.983 559.715C327.881 558.994 326.963 558.025 326.303 556.884C325.644 555.744 325.261 554.465 325.186 553.15V516.321L258.444 554.901L258.356 591.729Z" fill="#212B36"/>
<path opacity="0.5" d="M336.697 564.212L328.94 559.737C327.837 559.016 326.919 558.047 326.26 556.906C325.6 555.766 325.218 554.487 325.143 553.172V516.321L258.4 554.901V591.729C258.476 593.046 258.859 594.326 259.521 595.466C260.182 596.607 261.103 597.575 262.208 598.294L269.867 602.671L336.697 564.212Z" fill="#212B36"/>
<path d="M363.996 584.76V590.077C363.996 593.064 362.016 596.029 358.088 598.316L319.793 620.407C315.602 622.644 310.921 623.806 306.171 623.788V618.492C310.921 618.51 315.602 617.348 319.793 615.111L358.088 592.999C362.016 590.734 363.996 587.747 363.996 584.76Z" fill="#FF9F43"/>
<path opacity="0.5" d="M363.996 584.76V590.077C363.996 593.064 362.016 596.029 358.088 598.316L319.793 620.407C315.602 622.644 310.921 623.806 306.171 623.788V618.492C310.921 618.51 315.602 617.348 319.793 615.111L358.088 592.999C362.016 590.734 363.996 587.747 363.996 584.76Z" fill="#212B36"/>
<path d="M151.131 637.497C152.574 638.194 154.161 638.542 155.763 638.513C157.365 638.485 158.938 638.08 160.355 637.333L418.572 488.256C419.956 487.353 421.109 486.137 421.936 484.705C422.763 483.274 423.241 481.668 423.331 480.017V271.124C423.282 269.519 422.854 267.947 422.082 266.538C421.31 265.129 420.216 263.923 418.889 263.017C417.448 262.319 415.863 261.971 414.262 262.002C412.661 262.032 411.09 262.44 409.676 263.192L151.46 412.312C150.08 413.221 148.935 414.443 148.117 415.878C147.299 417.314 146.833 418.923 146.755 420.573V629.433C146.804 631.026 147.225 632.585 147.985 633.985C148.745 635.385 149.823 636.588 151.131 637.497Z" fill="#FF9F43"/>
<path d="M160.388 637.322L418.605 488.246C419.992 487.345 421.145 486.129 421.972 484.697C422.8 483.265 423.277 481.658 423.365 480.007V271.125C423.365 268.094 421.231 266.858 418.605 268.379L160.388 417.455C159.003 418.357 157.85 419.574 157.023 421.005C156.196 422.437 155.719 424.043 155.629 425.694V634.576C155.629 637.607 157.762 638.843 160.388 637.322Z" fill="#FF9F43"/>
<path opacity="0.5" d="M160.388 637.322L418.605 488.246C419.992 487.345 421.145 486.129 421.972 484.697C422.8 483.265 423.277 481.658 423.365 480.007V271.125C423.365 268.094 421.231 266.858 418.605 268.379L160.388 417.455C159.003 418.357 157.85 419.574 157.023 421.005C156.196 422.437 155.719 424.043 155.629 425.694V634.576C155.629 637.607 157.762 638.843 160.388 637.322Z" fill="#212B36"/>
<path d="M159.688 642.75C158.334 643.341 156.867 643.631 155.39 643.601C153.913 643.571 152.46 643.22 151.131 642.574C149.82 641.664 148.74 640.457 147.98 639.053C147.22 637.648 146.8 636.085 146.755 634.489V615.473L155.672 620.637V639.653C155.617 642.421 157.379 643.68 159.688 642.75Z" fill="#FF9F43"/>
<path opacity="0.5" d="M159.688 642.75C158.334 643.341 156.867 643.631 155.39 643.601C153.913 643.571 152.46 643.22 151.131 642.574C149.82 641.664 148.74 640.457 147.98 639.053C147.22 637.648 146.8 636.085 146.755 634.489V615.473L155.672 620.637V639.653C155.617 642.421 157.379 643.68 159.688 642.75Z" fill="#212B36"/>
<path d="M155.617 620.636V639.652C155.617 642.683 157.805 643.909 160.377 642.399L418.593 493.322C419.972 492.423 421.121 491.214 421.948 489.791C422.774 488.367 423.256 486.77 423.353 485.127V466.023L155.617 620.636Z" fill="#FF9F43"/>
<path opacity="0.3" d="M155.629 620.592V639.652C155.629 642.683 157.817 643.909 160.388 642.399L418.605 493.322C419.982 492.422 421.129 491.212 421.953 489.789C422.778 488.366 423.258 486.769 423.354 485.127V466.023L155.629 620.592Z" fill="#212B36"/>
<path d="M164.545 596.73V428.659C164.596 427.669 164.88 426.705 165.374 425.845C165.869 424.986 166.559 424.255 167.39 423.714L411.536 282.712C413.111 281.804 414.391 282.537 414.391 284.353V452.511C414.338 453.502 414.052 454.467 413.556 455.326C413.06 456.185 412.368 456.915 411.536 457.457L167.401 598.426C165.825 599.334 164.545 598.59 164.545 596.73Z" fill="#FF9F43"/>
<path d="M164.545 596.73V428.659C164.596 427.669 164.88 426.705 165.374 425.845C165.869 424.986 166.559 424.255 167.39 423.714L411.536 282.712C413.111 281.804 414.391 282.537 414.391 284.353V452.511C414.338 453.502 414.052 454.467 413.556 455.326C413.06 456.185 412.368 456.915 411.536 457.457L167.401 598.426C165.825 599.334 164.545 598.59 164.545 596.73Z" fill="#212B36"/>
<path d="M289.486 549.385C288.186 550.23 287.104 551.37 286.329 552.712C285.553 554.055 285.105 555.561 285.021 557.109C285.021 559.954 287.024 561.114 289.486 559.691C290.787 558.845 291.869 557.703 292.645 556.359C293.421 555.014 293.868 553.506 293.95 551.956C293.95 549.111 291.947 547.962 289.486 549.385Z" fill="#FF9F43"/>
<path opacity="0.7" d="M157.029 420.989C156.181 422.414 155.696 424.026 155.617 425.683V620.636L146.755 615.472V420.573C146.812 418.911 147.294 417.291 148.155 415.868L157.029 420.989Z" fill="#212B36"/>
<path opacity="0.3" d="M423.31 270.337C422.97 267.886 420.99 267.055 418.594 268.378L160.377 417.455C158.977 418.33 157.821 419.546 157.018 420.989L148.09 415.835C148.899 414.393 150.058 413.178 151.46 412.301L409.677 263.236C411.092 262.484 412.665 262.076 414.267 262.046C415.87 262.015 417.457 262.363 418.9 263.061C420.113 263.887 421.134 264.965 421.895 266.22C422.656 267.475 423.138 268.879 423.31 270.337Z" fill="#212B36"/>
<path d="M437.239 296.044C436.856 295.851 436.427 295.767 435.999 295.8C435.571 295.833 435.16 295.981 434.81 296.23L191.167 436.98C190.206 437.616 189.408 438.469 188.838 439.471C188.267 440.473 187.941 441.595 187.885 442.746V609.788C187.851 610.352 187.963 610.915 188.21 611.423C188.457 611.931 188.831 612.367 189.296 612.688C189.832 612.983 192.699 614.646 193.553 615.106C193.854 615.26 194.192 615.33 194.53 615.311C194.868 615.292 195.196 615.183 195.478 614.996L439.066 474.246C440.028 473.61 440.826 472.757 441.396 471.755C441.966 470.753 442.293 469.632 442.349 468.48V300.574C442.398 300.149 442.327 299.72 442.146 299.333C441.964 298.947 441.678 298.619 441.32 298.385C440.773 298.024 437.852 296.405 437.239 296.044Z" fill="#FF9F43"/>
<path d="M195.423 439.344L439.077 298.649C440.915 297.555 442.359 298.452 442.359 300.575V468.481C442.303 469.632 441.977 470.754 441.407 471.756C440.836 472.758 440.038 473.611 439.077 474.247L195.423 614.997C193.585 616.091 192.141 614.33 192.141 612.207V445.11C192.198 443.959 192.525 442.838 193.096 441.837C193.666 440.835 194.463 439.981 195.423 439.344Z" fill="white"/>
<path d="M440.565 299.282C441.21 299.282 441.309 300.091 441.309 300.573V468.479C441.25 469.443 440.967 470.38 440.483 471.216C439.998 472.052 439.326 472.763 438.519 473.293L194.898 614.043C194.734 614.15 194.545 614.21 194.351 614.219C193.738 614.219 193.257 613.278 193.257 612.205V445.108C193.309 444.145 193.584 443.206 194.058 442.365C194.532 441.525 195.194 440.805 195.992 440.261L439.624 299.588C439.906 299.406 440.23 299.301 440.565 299.282ZM440.565 298.188C440.038 298.21 439.525 298.368 439.077 298.647L195.423 439.342C194.463 439.98 193.666 440.833 193.096 441.835C192.525 442.836 192.198 443.958 192.141 445.108V612.205C192.141 613.89 193.082 615.313 194.329 615.313C194.715 615.305 195.093 615.196 195.423 614.995L439.066 474.245C440.027 473.609 440.825 472.756 441.396 471.754C441.966 470.753 442.292 469.631 442.348 468.479V300.573C442.348 299.063 441.604 298.188 440.51 298.188H440.565Z" fill="#E0E0E0"/>
<path d="M189.23 612.688C189.591 612.874 192.184 614.351 193.322 615.007C192.914 614.668 192.59 614.239 192.377 613.752C192.164 613.266 192.068 612.736 192.097 612.206V456.018L187.83 453.523V609.788C187.794 610.351 187.905 610.914 188.15 611.422C188.395 611.929 188.767 612.366 189.23 612.688Z" fill="#F0F0F0"/>
<path d="M442.403 300.541C442.403 298.44 440.904 297.587 439.121 298.648L195.423 439.343C194.463 439.981 193.666 440.834 193.096 441.836C192.525 442.837 192.198 443.958 192.141 445.109V456.051L442.403 311.482V300.541Z" fill="#FF9F43"/>
<g opacity="0.4">
<path d="M439.076 298.647L195.422 439.331C194.445 439.948 193.639 440.802 193.081 441.815L188.847 439.353C189.404 438.376 190.202 437.558 191.166 436.979L434.809 296.229C435.158 295.978 435.568 295.828 435.996 295.793C436.424 295.758 436.854 295.841 437.238 296.032C437.829 296.404 440.597 297.968 441.308 298.351C440.94 298.215 440.545 298.17 440.156 298.222C439.767 298.273 439.396 298.419 439.076 298.647Z" fill="white"/>
</g>
<path opacity="0.15" d="M187.83 453.535V442.692C187.875 441.51 188.226 440.36 188.848 439.354L193.093 441.805C192.48 442.794 192.136 443.925 192.097 445.088V456.029L187.83 453.535Z" fill="#212B36"/>
<path d="M391.022 426.501L245.097 510.75C244.388 511.21 243.797 511.831 243.373 512.563C242.949 513.295 242.704 514.117 242.657 514.962V556.802C242.704 557.646 242.949 558.468 243.373 559.2C243.797 559.932 244.388 560.554 245.097 561.014L249.353 563.465C250.11 563.848 250.946 564.047 251.793 564.047C252.641 564.047 253.477 563.848 254.233 563.465L400.137 479.216C400.846 478.754 401.437 478.13 401.861 477.396C402.285 476.663 402.53 475.839 402.577 474.993V433.142C402.53 432.298 402.285 431.476 401.861 430.744C401.437 430.012 400.846 429.39 400.137 428.93L395.869 426.479C395.116 426.103 394.285 425.908 393.443 425.912C392.601 425.916 391.772 426.118 391.022 426.501Z" fill="#FF9F43"/>
<path opacity="0.5" d="M402.576 432.769C402.401 431.511 401.384 431.052 400.158 431.763L254.233 516.012C253.513 516.459 252.921 517.084 252.515 517.828L243.379 512.554C243.788 511.822 244.375 511.205 245.086 510.76L391.022 426.511C391.776 426.128 392.61 425.928 393.456 425.928C394.303 425.928 395.137 426.128 395.891 426.511L400.158 428.962C400.809 429.388 401.361 429.948 401.778 430.605C402.195 431.261 402.467 431.999 402.576 432.769Z" fill="white"/>
<path d="M253.817 563.672C253.103 563.953 252.337 564.081 251.57 564.048C250.803 564.014 250.051 563.818 249.364 563.475L245.097 561.024C244.389 560.562 243.799 559.94 243.375 559.209C242.951 558.477 242.705 557.656 242.657 556.812V514.972C242.69 514.118 242.939 513.286 243.379 512.554L252.515 517.827C252.071 518.55 251.823 519.376 251.793 520.224V562.074C251.793 563.464 252.669 564.11 253.817 563.672Z" fill="#212B36"/>
<path d="M254.233 516.012L400.159 431.764C401.505 430.987 402.599 431.61 402.599 433.164V475.015C402.552 475.861 402.307 476.684 401.883 477.418C401.459 478.152 400.869 478.776 400.159 479.238L254.255 563.487C252.91 564.264 251.815 563.629 251.815 562.076V520.236C251.859 519.392 252.101 518.569 252.521 517.836C252.941 517.102 253.528 516.478 254.233 516.012Z" fill="#FF9F43"/>
<path d="M352.333 448.843L245.107 510.76C244.397 511.206 243.81 511.823 243.4 512.554L252.536 517.828C252.943 517.085 253.535 516.459 254.254 516.012L361.48 454.106L352.333 448.843Z" fill="#455A64"/>
<path d="M361.458 454.105L254.233 516.012C253.523 516.475 252.932 517.098 252.508 517.832C252.084 518.566 251.839 519.389 251.793 520.235V562.064C251.793 563.618 252.887 564.252 254.233 563.476L361.458 501.569V454.105Z" fill="#37474F"/>
<path d="M278.96 510.913L334.291 478.975C336.578 477.651 338.438 478.592 338.438 481.076C338.336 482.471 337.906 483.822 337.183 485.019C336.461 486.217 335.466 487.227 334.28 487.969L278.96 519.917C276.674 521.241 274.803 520.3 274.803 517.817C274.906 516.421 275.336 515.068 276.058 513.869C276.781 512.67 277.775 511.657 278.96 510.913Z" fill="#FF9F43"/>
<path d="M290.296 521.493C290.306 521.481 290.319 521.472 290.333 521.466C290.347 521.459 290.363 521.456 290.378 521.456C290.394 521.456 290.409 521.459 290.423 521.466C290.437 521.472 290.45 521.481 290.46 521.493C290.509 521.567 290.532 521.656 290.526 521.745V527.97C290.526 528.572 290.475 529.172 290.373 529.765C290.282 530.306 290.128 530.835 289.913 531.34C289.717 531.803 289.459 532.237 289.147 532.631C288.839 532.997 288.469 533.304 288.053 533.54C287.727 533.752 287.348 533.866 286.959 533.868C286.81 533.856 286.666 533.814 286.534 533.744C286.402 533.675 286.286 533.579 286.193 533.463C285.953 533.141 285.795 532.766 285.733 532.369C285.629 531.839 285.581 531.3 285.591 530.76V524.524C285.591 524.415 285.613 524.307 285.657 524.207C285.684 524.116 285.742 524.039 285.821 523.988L286.51 523.583C286.533 523.562 286.562 523.551 286.592 523.551C286.623 523.551 286.652 523.562 286.674 523.583C286.725 523.657 286.748 523.746 286.74 523.835V529.984C286.732 530.322 286.765 530.66 286.838 530.99C286.869 531.201 286.96 531.399 287.101 531.559C287.15 531.618 287.213 531.664 287.283 531.695C287.353 531.725 287.429 531.739 287.506 531.734C287.693 531.722 287.874 531.662 288.031 531.559C288.226 531.443 288.403 531.299 288.556 531.132C288.727 530.936 288.867 530.714 288.972 530.476C289.095 530.195 289.187 529.902 289.246 529.601C289.309 529.24 289.339 528.873 289.333 528.507V522.347C289.337 522.237 289.363 522.129 289.41 522.029C289.437 521.939 289.495 521.861 289.574 521.81L290.296 521.493Z" fill="white"/>
<path d="M294.585 527.379C294.59 527.299 294.571 527.219 294.53 527.149C294.504 527.121 294.471 527.099 294.435 527.086C294.399 527.072 294.36 527.068 294.322 527.073C294.188 527.054 294.051 527.054 293.917 527.073L293.283 527.193C293.078 527.244 292.864 527.244 292.659 527.193C292.498 527.141 292.36 527.037 292.265 526.898C292.158 526.72 292.087 526.523 292.057 526.318C291.95 525.732 291.95 525.131 292.057 524.545C292.139 524.209 292.257 523.883 292.407 523.572C292.557 523.261 292.741 522.967 292.954 522.696C293.161 522.438 293.413 522.219 293.698 522.051C293.928 521.91 294.186 521.821 294.453 521.788C294.647 521.768 294.843 521.81 295.011 521.908C295.172 522.006 295.298 522.152 295.372 522.324C295.461 522.528 295.509 522.747 295.515 522.97C295.526 523.08 295.503 523.191 295.449 523.287C295.422 523.377 295.364 523.455 295.285 523.506L294.628 523.889C294.598 523.906 294.564 523.915 294.53 523.915C294.495 523.915 294.461 523.906 294.431 523.889L294.289 523.779C294.233 523.735 294.164 523.708 294.092 523.703C293.952 523.719 293.817 523.767 293.698 523.845C293.527 523.949 293.375 524.082 293.25 524.239C293.117 524.411 293.048 524.624 293.053 524.841C293.037 524.924 293.037 525.009 293.053 525.092C293.074 525.123 293.101 525.149 293.133 525.168C293.166 525.187 293.202 525.199 293.239 525.202C293.358 525.222 293.48 525.222 293.6 525.202L294.213 525.092C294.727 524.994 295.077 525.092 295.307 525.377C295.548 525.782 295.659 526.252 295.624 526.723C295.621 527.048 295.577 527.371 295.493 527.685C295.406 528.027 295.281 528.357 295.121 528.67C294.96 528.994 294.758 529.296 294.519 529.567C294.292 529.833 294.022 530.059 293.72 530.235C293.48 530.389 293.206 530.482 292.922 530.508C292.716 530.516 292.513 530.458 292.342 530.344C292.173 530.229 292.043 530.065 291.97 529.874C291.881 529.666 291.837 529.443 291.838 529.217C291.828 529.104 291.851 528.99 291.904 528.889C291.931 528.799 291.989 528.721 292.068 528.67L292.725 528.287C292.812 528.287 292.878 528.233 292.922 528.287L293.064 528.44C293.093 528.473 293.128 528.5 293.168 528.518C293.207 528.537 293.25 528.548 293.294 528.55C293.448 528.551 293.598 528.501 293.72 528.408C293.918 528.296 294.095 528.151 294.245 527.981C294.32 527.891 294.382 527.792 294.431 527.685C294.509 527.599 294.562 527.493 294.585 527.379Z" fill="white"/>
<path d="M296.817 524.416C296.815 523.847 296.862 523.28 296.959 522.72C297.05 522.193 297.193 521.676 297.386 521.177C297.547 520.73 297.767 520.307 298.042 519.919C298.272 519.586 298.57 519.306 298.918 519.098C299.171 518.928 299.481 518.861 299.782 518.912C300.049 518.974 300.284 519.134 300.438 519.361C300.644 519.658 300.789 519.992 300.865 520.346C300.97 520.805 301.021 521.275 301.018 521.746V522.424C301.022 522.539 300.995 522.652 300.942 522.753C300.915 522.843 300.857 522.921 300.778 522.972L297.933 524.624C297.926 524.816 297.952 525.009 298.009 525.193C298.052 525.317 298.127 525.426 298.228 525.51C298.318 525.581 298.431 525.616 298.545 525.608C298.678 525.593 298.805 525.548 298.918 525.477C299.083 525.387 299.231 525.269 299.355 525.127C299.467 525.001 299.563 524.861 299.64 524.711C299.686 524.625 299.738 524.541 299.793 524.46C299.84 524.404 299.895 524.356 299.957 524.317L300.635 523.923C300.659 523.905 300.688 523.895 300.717 523.895C300.747 523.895 300.776 523.905 300.799 523.923C300.828 523.958 300.849 523.998 300.86 524.042C300.872 524.085 300.873 524.131 300.865 524.175C300.853 524.388 300.809 524.599 300.734 524.799C300.639 525.102 300.515 525.395 300.362 525.674C300.191 525.994 299.985 526.295 299.749 526.571C299.514 526.853 299.233 527.094 298.918 527.282C298.659 527.452 298.349 527.525 298.042 527.49C297.773 527.426 297.539 527.261 297.386 527.031C297.17 526.699 297.025 526.327 296.959 525.937C296.86 525.436 296.812 524.926 296.817 524.416ZM298.918 520.925C298.749 521.016 298.603 521.143 298.491 521.297C298.369 521.451 298.27 521.62 298.195 521.801C298.119 521.982 298.057 522.168 298.009 522.359C297.971 522.532 297.945 522.707 297.933 522.884L299.858 521.79C299.847 521.639 299.825 521.489 299.793 521.341C299.776 521.209 299.723 521.084 299.64 520.98C299.607 520.933 299.565 520.893 299.516 520.863C299.467 520.833 299.412 520.813 299.355 520.805C299.2 520.792 299.044 520.835 298.918 520.925Z" fill="white"/>
<path d="M304.453 517.871C304.121 518.061 303.86 518.352 303.709 518.703C303.539 519.165 303.461 519.655 303.479 520.147V524.097C303.481 524.21 303.458 524.322 303.414 524.425C303.387 524.515 303.328 524.593 303.249 524.644L302.604 525.016C302.594 525.028 302.581 525.037 302.567 525.043C302.553 525.05 302.537 525.053 302.522 525.053C302.506 525.053 302.491 525.05 302.477 525.043C302.463 525.037 302.45 525.028 302.44 525.016C302.391 524.942 302.368 524.853 302.374 524.764V517.685C302.375 517.573 302.397 517.461 302.44 517.357C302.47 517.269 302.528 517.192 302.604 517.138L303.249 516.766C303.272 516.745 303.301 516.734 303.331 516.734C303.362 516.734 303.391 516.745 303.414 516.766C303.464 516.836 303.488 516.921 303.479 517.007V517.357C303.61 517.063 303.771 516.785 303.961 516.526C304.134 516.286 304.358 516.088 304.617 515.946L305.011 515.716C305.031 515.696 305.059 515.685 305.088 515.685C305.116 515.685 305.144 515.696 305.164 515.716C305.217 515.789 305.244 515.877 305.241 515.967V516.963C305.239 517.077 305.213 517.189 305.164 517.291C305.136 517.378 305.083 517.455 305.011 517.51L304.453 517.871Z" fill="white"/>
<path d="M312.615 517.348C312.626 517.336 312.638 517.327 312.652 517.32C312.667 517.314 312.682 517.31 312.697 517.31C312.713 517.31 312.728 517.314 312.742 517.32C312.757 517.327 312.769 517.336 312.779 517.348C312.828 517.422 312.852 517.51 312.845 517.599V518.693C312.845 518.806 312.822 518.917 312.779 519.022C312.742 519.103 312.686 519.174 312.615 519.229L308.873 521.418C308.851 521.438 308.822 521.45 308.791 521.45C308.761 521.45 308.732 521.438 308.709 521.418C308.66 521.347 308.637 521.262 308.644 521.177V511.33C308.644 511.217 308.666 511.106 308.709 511.001C308.74 510.916 308.797 510.843 308.873 510.794L309.563 510.389C309.585 510.368 309.614 510.356 309.645 510.356C309.675 510.356 309.705 510.368 309.727 510.389C309.776 510.459 309.799 510.544 309.792 510.629V518.956L312.615 517.348Z" fill="white"/>
<path d="M315.975 509.251C316.221 509.08 316.518 508.999 316.817 509.021C317.073 509.041 317.312 509.159 317.484 509.349C317.688 509.584 317.838 509.86 317.922 510.159C318.039 510.546 318.105 510.947 318.119 511.352C318.119 511.439 318.119 511.559 318.119 511.702V512.544C318.119 512.675 318.119 512.796 318.119 512.894C318.097 513.37 318.032 513.842 317.922 514.306C317.821 514.757 317.674 515.197 317.484 515.619C317.311 516.011 317.087 516.379 316.817 516.713C316.586 517.015 316.3 517.271 315.975 517.468C315.721 517.632 315.423 517.713 315.121 517.698C314.869 517.676 314.634 517.558 314.465 517.369C314.255 517.143 314.104 516.869 314.027 516.571C313.91 516.183 313.844 515.782 313.83 515.378C313.83 515.29 313.83 515.181 313.83 515.039V514.196C313.83 514.054 313.83 513.934 313.83 513.846C313.843 513.367 313.905 512.89 314.016 512.424C314.123 511.969 314.273 511.526 314.465 511.1C314.639 510.71 314.859 510.343 315.121 510.006C315.353 509.7 315.643 509.444 315.975 509.251ZM317.003 512.074C317.003 511.832 316.962 511.591 316.883 511.363C316.842 511.223 316.758 511.1 316.642 511.012C316.549 510.95 316.436 510.923 316.325 510.936C316.2 510.959 316.081 511.008 315.975 511.078C315.846 511.148 315.728 511.237 315.624 511.341C315.499 511.471 315.392 511.618 315.307 511.778C315.197 511.977 315.116 512.191 315.066 512.413C314.995 512.692 314.951 512.978 314.935 513.266C314.935 513.354 314.935 513.452 314.935 513.573V514.35C314.935 514.47 314.935 514.568 314.935 514.634C314.945 514.876 314.99 515.115 315.066 515.345C315.106 515.485 315.191 515.608 315.307 515.695C315.353 515.728 315.404 515.75 315.459 515.761C315.514 515.773 315.57 515.772 315.624 515.761C315.748 515.74 315.867 515.695 315.975 515.63C316.101 515.556 316.219 515.468 316.325 515.367C316.447 515.234 316.553 515.087 316.642 514.929C316.747 514.728 316.828 514.515 316.883 514.295C316.954 514.016 316.995 513.729 317.003 513.441C317.01 513.339 317.01 513.237 317.003 513.135V512.369C317.009 512.271 317.009 512.172 317.003 512.074Z" fill="white"/>
<path d="M321.468 515.651C321.608 515.565 321.733 515.458 321.84 515.334C321.971 515.179 322.085 515.01 322.179 514.83C322.287 514.61 322.372 514.379 322.43 514.141C322.498 513.873 322.531 513.597 322.529 513.32V512.762C322.529 512.872 322.419 513.003 322.343 513.156C322.268 513.316 322.18 513.47 322.08 513.616C321.966 513.77 321.842 513.916 321.708 514.053C321.571 514.197 321.412 514.319 321.238 514.415C321.125 514.491 320.999 514.544 320.865 514.571C320.732 514.597 320.594 514.596 320.461 514.568C320.218 514.492 320.009 514.333 319.87 514.119C319.692 513.836 319.562 513.526 319.487 513.2C319.394 512.787 319.343 512.365 319.334 511.942C319.334 511.8 319.334 511.624 319.334 511.417C319.334 511.209 319.334 511.034 319.334 510.88C319.348 510.399 319.399 509.92 319.487 509.447C319.577 508.981 319.705 508.524 319.87 508.079C320.025 507.693 320.223 507.326 320.461 506.985C320.663 506.684 320.928 506.43 321.238 506.241C321.383 506.154 321.542 506.091 321.708 506.055C321.831 506.032 321.957 506.032 322.08 506.055C322.177 506.083 322.267 506.131 322.343 506.198C322.413 506.251 322.475 506.314 322.529 506.384V506.033C322.529 505.921 322.552 505.809 322.595 505.705C322.625 505.62 322.683 505.547 322.759 505.497L323.404 505.114C323.426 505.094 323.456 505.082 323.486 505.082C323.517 505.082 323.546 505.094 323.568 505.114C323.621 505.187 323.648 505.276 323.645 505.366V512.478C323.674 513.543 323.477 514.602 323.065 515.585C322.742 516.358 322.183 517.009 321.468 517.445C321.224 517.597 320.945 517.683 320.658 517.697C320.431 517.711 320.205 517.653 320.012 517.533C319.827 517.394 319.678 517.215 319.575 517.008C319.468 516.758 319.409 516.491 319.4 516.22C319.389 516.106 319.412 515.992 319.465 515.892C319.492 515.801 319.55 515.724 319.629 515.673L320.209 515.345C320.223 515.33 320.239 515.319 320.257 515.311C320.274 515.303 320.294 515.299 320.313 515.299C320.333 515.299 320.352 515.303 320.37 515.311C320.388 515.319 320.404 515.33 320.417 515.345C320.471 515.401 320.519 515.464 320.559 515.531C320.626 515.648 320.736 515.734 320.866 515.771C320.997 515.87 321.194 515.76 321.468 515.651ZM320.439 510.344C320.439 510.636 320.439 510.921 320.439 511.198C320.408 511.635 320.532 512.069 320.789 512.423C320.887 512.507 321.011 512.553 321.139 512.553C321.268 512.553 321.392 512.507 321.489 512.423C321.807 512.217 322.055 511.919 322.201 511.57C322.4 511.113 322.511 510.623 322.529 510.126C322.529 509.961 322.529 509.764 322.529 509.535C322.529 509.305 322.529 509.108 322.529 508.966C322.551 508.574 322.435 508.187 322.201 507.872C322.104 507.782 321.977 507.733 321.845 507.733C321.713 507.733 321.586 507.782 321.489 507.872C321.178 508.077 320.934 508.37 320.789 508.714C320.564 509.229 320.445 509.783 320.439 510.344Z" fill="white"/>
<path d="M326.194 500.628C326.216 500.61 326.243 500.601 326.271 500.601C326.299 500.601 326.326 500.61 326.347 500.628C326.405 500.699 326.432 500.789 326.424 500.88V502.072C326.425 502.186 326.398 502.299 326.347 502.401C326.317 502.483 326.264 502.555 326.194 502.608L325.461 503.035C325.451 503.047 325.438 503.056 325.424 503.063C325.41 503.069 325.395 503.072 325.379 503.072C325.364 503.072 325.348 503.069 325.334 503.063C325.32 503.056 325.307 503.047 325.297 503.035C325.268 503.002 325.247 502.964 325.234 502.923C325.221 502.881 325.216 502.838 325.22 502.794V501.602C325.22 501.488 325.246 501.375 325.297 501.274C325.328 501.188 325.385 501.115 325.461 501.066L326.194 500.628ZM326.38 510.902C326.381 511.011 326.358 511.119 326.315 511.219C326.28 511.305 326.223 511.381 326.15 511.438L325.494 511.81C325.485 511.822 325.473 511.831 325.46 511.837C325.447 511.843 325.432 511.847 325.417 511.847C325.403 511.847 325.388 511.843 325.375 511.837C325.362 511.831 325.35 511.822 325.341 511.81C325.283 511.739 325.256 511.649 325.264 511.559V504.479C325.263 504.366 325.29 504.253 325.341 504.151C325.372 504.066 325.424 503.991 325.494 503.932L326.15 503.56C326.173 503.54 326.202 503.528 326.232 503.528C326.263 503.528 326.292 503.54 326.315 503.56C326.363 503.631 326.387 503.716 326.38 503.801V510.902Z" fill="white"/>
<path d="M332.136 507.565C332.136 507.677 332.113 507.789 332.071 507.893C332.04 507.978 331.982 508.051 331.906 508.101L331.25 508.484C331.229 508.504 331.202 508.515 331.173 508.515C331.145 508.515 331.117 508.504 331.097 508.484C331.039 508.413 331.012 508.323 331.02 508.232V504.381C331.054 503.926 330.971 503.471 330.779 503.057C330.626 502.783 330.386 502.74 330.046 502.937C329.708 503.164 329.457 503.5 329.335 503.889C329.153 504.405 329.064 504.949 329.073 505.497V509.359C329.072 509.472 329.05 509.583 329.007 509.687C328.98 509.778 328.922 509.855 328.843 509.906L328.197 510.278C328.187 510.29 328.174 510.299 328.16 510.306C328.146 510.312 328.131 510.315 328.115 510.315C328.1 510.315 328.084 510.312 328.07 510.306C328.056 510.299 328.043 510.29 328.033 510.278C327.982 510.209 327.959 510.123 327.968 510.038V502.959C327.966 502.846 327.988 502.734 328.033 502.63C328.06 502.54 328.118 502.462 328.197 502.411L328.843 502.039C328.853 502.028 328.866 502.018 328.88 502.012C328.894 502.006 328.909 502.002 328.925 502.002C328.94 502.002 328.956 502.006 328.97 502.012C328.984 502.018 328.997 502.028 329.007 502.039C329.056 502.114 329.079 502.202 329.073 502.291V502.63C329.217 502.297 329.392 501.978 329.598 501.678C329.778 501.402 330.022 501.173 330.309 501.011C330.558 500.829 330.868 500.751 331.173 500.792C331.294 500.823 331.408 500.878 331.506 500.956C331.604 501.033 331.684 501.13 331.742 501.241C331.901 501.537 332.005 501.859 332.049 502.193C332.107 502.628 332.136 503.066 332.136 503.506V507.565Z" fill="white"/>
<path d="M387.323 475.715L376.699 481.842L378.352 466.94C377.071 466.261 376.262 464.609 376.262 462.235C376.262 458.001 378.844 453.088 382.017 451.294C385.19 449.499 387.761 451.403 387.761 455.67C387.695 458.181 386.979 460.631 385.682 462.782L387.323 475.715Z" fill="#455A64"/>
<path d="M387.334 475.715L377.979 470.321L376.699 481.854L387.334 475.715Z" fill="#37474F"/>
<path d="M381.996 451.26C379.682 452.823 377.956 455.115 377.094 457.77L385.661 462.716C386.958 460.565 387.674 458.115 387.74 455.604C387.762 451.37 385.19 449.433 381.996 451.26Z" fill="#37474F"/>
<path d="M330.352 401.643C326.709 399.542 321.687 399.837 316.128 403.043C305.034 409.455 296.04 425.024 296.04 437.837C296.04 444.27 298.316 448.778 301.97 450.857L309.049 454.971C312.682 457.072 317.704 456.765 323.273 453.559C334.368 447.159 343.362 431.578 343.362 418.766C343.362 412.365 341.108 407.824 337.475 405.778" fill="#FF9F43"/>
<path d="M323.262 407.168C312.168 413.579 303.174 429.16 303.174 441.961C303.174 454.763 312.168 459.971 323.262 453.559C334.357 447.147 343.362 431.578 343.351 418.766C343.34 405.953 334.346 400.767 323.262 407.168Z" fill="#FF9F43"/>
<path d="M334.346 435.593V437.059C331.688 441.804 327.876 445.8 323.263 448.679C318.941 451.163 315.035 451.436 312.168 449.85V446.83C312.315 443.688 313.212 440.627 314.784 437.903C316.356 435.179 318.558 432.871 321.206 431.173L324.127 429.488C326.709 428 329.226 427.803 331.195 428.952C333.165 430.101 334.346 432.519 334.346 435.593Z" fill="#FF9F43"/>
<path opacity="0.4" d="M330.353 401.642L337.465 405.778C333.832 403.666 328.81 403.962 323.241 407.168C315.976 411.369 309.608 419.498 306.085 428.208L298.962 424.083C302.496 415.33 308.809 407.244 316.118 403.043C321.698 399.848 326.72 399.541 330.353 401.642Z" fill="white"/>
<path opacity="0.2" d="M308.798 454.806L301.982 450.856C298.328 448.777 296.052 444.291 296.052 437.836L303.175 441.972C303.218 448.208 305.319 452.651 308.798 454.806Z" fill="#212B36"/>
<path opacity="0.1" d="M298.982 424.082L306.105 428.207C304.28 432.567 303.3 437.234 303.217 441.96L296.094 437.824C296.182 433.102 297.162 428.44 298.982 424.082Z" fill="#212B36"/>
<path d="M320.723 428.799C320.044 428.806 319.376 428.632 318.787 428.295C318.076 427.822 317.507 427.165 317.139 426.395C316.771 425.624 316.618 424.769 316.697 423.919C316.79 421.925 317.359 419.983 318.356 418.255C319.353 416.526 320.75 415.062 322.43 413.984C323.105 413.445 323.926 413.123 324.787 413.059C325.648 412.995 326.508 413.192 327.255 413.624C328.002 414.057 328.601 414.705 328.974 415.484C329.347 416.262 329.476 417.135 329.345 417.989C329.25 419.982 328.681 421.923 327.683 423.651C326.686 425.379 325.29 426.844 323.612 427.923C322.743 428.465 321.746 428.767 320.723 428.799Z" fill="white"/>
<path d="M331.195 428.94C329.226 427.791 326.709 427.988 324.127 429.476L321.206 431.161C318.557 432.861 316.354 435.17 314.782 437.896C313.209 440.622 312.313 443.686 312.168 446.829V449.86C315.035 451.446 318.941 451.173 323.263 448.689C327.876 445.81 331.688 441.814 334.346 437.07V435.603C334.346 432.518 333.208 430.1 331.195 428.94Z" fill="white"/>
<path d="M556.128 618.228C556.128 618.228 557.583 605.448 563.94 595.525C570.297 585.601 579.028 579.419 587.18 578.773C595.331 578.128 601.918 585.634 593.197 590.809C584.477 595.984 568.984 601.214 561.85 620.471L556.128 618.228Z" fill="#FF9F43"/>
<path opacity="0.1" d="M556.128 618.228C556.128 618.228 557.583 605.448 563.94 595.525C570.297 585.601 579.028 579.419 587.18 578.773C595.331 578.128 601.918 585.634 593.197 590.809C584.477 595.984 568.984 601.214 561.85 620.471L556.128 618.228Z" fill="#212B36"/>
<path d="M558.524 614.902H558.437C558.329 614.858 558.244 614.774 558.199 614.667C558.154 614.561 558.153 614.44 558.196 614.333C566.796 593.161 583.164 584.31 590.626 582.603C590.682 582.59 590.74 582.588 590.797 582.598C590.854 582.607 590.908 582.628 590.957 582.658C591.005 582.689 591.048 582.729 591.081 582.775C591.115 582.822 591.138 582.875 591.151 582.931C591.164 582.987 591.166 583.045 591.156 583.102C591.147 583.159 591.126 583.213 591.096 583.262C591.065 583.311 591.026 583.353 590.979 583.386C590.932 583.42 590.879 583.444 590.823 583.456C583.514 585.141 567.463 593.829 559.005 614.672C558.963 614.76 558.893 614.83 558.805 614.872C558.718 614.913 558.618 614.924 558.524 614.902Z" fill="white"/>
<path d="M602.049 615.154C601.316 616.817 599.5 617.692 597.815 618.371C596.13 619.049 594.292 619.782 593.373 621.358C591.535 624.531 594.554 629.017 592.585 632.091C592.121 632.71 591.537 633.229 590.868 633.616C590.198 634.004 589.458 634.252 588.69 634.345C587.432 634.575 586.151 634.575 584.882 634.684C584.274 634.676 583.668 634.629 583.066 634.542C581.298 634.148 579.449 634.344 577.803 635.1C575.276 636.522 574.521 639.706 572.967 642.168C572.018 643.618 570.767 644.845 569.3 645.767C567.832 646.688 566.184 647.282 564.466 647.508C563.372 647.65 561.183 647.858 560.089 647.212C560.003 647.17 559.923 647.119 559.848 647.059C559.684 646.884 559.487 646.654 559.4 646.534C559.394 646.509 559.394 646.482 559.4 646.457C558.951 644.805 559.684 643.098 559.717 641.391V641.085C559.64 639.105 559.586 637.135 559.542 635.166C559.447 631.519 559.411 627.871 559.433 624.224C559.433 621.861 559.17 619.279 560.177 617.058C561.271 614.607 564.028 614.552 565.067 612.156C565.483 611.193 565.702 610.176 566.107 609.202C566.732 607.786 567.735 606.569 569.004 605.684C570.273 604.798 571.762 604.278 573.306 604.18C578.11 603.939 582.41 607.823 587.213 607.462C588.449 607.364 589.664 606.981 590.889 606.762C594.773 606.029 599.27 607.134 601.458 610.427C601.939 611.105 602.244 611.892 602.347 612.716C602.45 613.541 602.348 614.378 602.049 615.154Z" fill="#FF9F43"/>
<path d="M558.918 638.873C558.815 638.843 558.727 638.773 558.674 638.679C558.621 638.585 558.606 638.474 558.633 638.37C565.264 613.489 591.458 609.922 597.618 610.338C597.672 610.341 597.725 610.354 597.774 610.378C597.823 610.402 597.866 610.435 597.902 610.476C597.938 610.517 597.965 610.564 597.982 610.616C597.999 610.667 598.005 610.722 598.001 610.776C597.99 610.882 597.938 610.98 597.856 611.049C597.775 611.119 597.67 611.154 597.563 611.148C591.556 610.721 565.91 614.233 559.421 638.589C559.391 638.692 559.321 638.78 559.227 638.833C559.133 638.886 559.022 638.9 558.918 638.873Z" fill="white"/>
<path d="M588.055 626.269C587.972 626.258 587.895 626.219 587.836 626.16C585.414 624.061 582.559 622.523 579.474 621.655C576.39 620.787 573.151 620.61 569.99 621.138C569.884 621.148 569.777 621.117 569.692 621.052C569.607 620.988 569.55 620.893 569.531 620.788C569.515 620.681 569.542 620.571 569.605 620.484C569.668 620.396 569.763 620.336 569.87 620.317C573.167 619.769 576.544 619.956 579.76 620.866C582.975 621.776 585.95 623.385 588.47 625.58C588.509 625.618 588.54 625.663 588.561 625.713C588.582 625.762 588.593 625.816 588.593 625.87C588.593 625.924 588.582 625.978 588.561 626.027C588.54 626.077 588.509 626.122 588.47 626.16C588.421 626.219 588.354 626.261 588.28 626.281C588.205 626.3 588.127 626.296 588.055 626.269Z" fill="white"/>
<path d="M495.917 317.726L499.396 319.061V311.402C499.396 305.319 504.243 303.863 509.506 306.905C514.78 309.947 519.047 317.332 519.047 323.416V324.51C519.781 324.286 520.555 324.23 521.313 324.348C522.071 324.465 522.792 324.753 523.424 325.188C525.422 326.491 527.085 328.247 528.277 330.314C529.469 332.381 530.157 334.699 530.284 337.082V337.585L535.142 340.386C536.456 341.244 537.55 342.399 538.335 343.758C539.12 345.117 539.574 346.642 539.661 348.209C539.661 351.097 537.637 352.268 535.142 350.824L495.917 328.164C494.602 327.308 493.508 326.153 492.724 324.794C491.941 323.434 491.49 321.908 491.409 320.341C491.409 317.464 493.411 316.293 495.917 317.726Z" fill="#E6E6E6"/>
<path d="M542.516 311.663L548.83 315.307C548.795 315.031 548.777 314.753 548.775 314.475V312.648C548.775 309.366 551.051 308.075 553.874 309.705C555.087 310.448 556.124 311.444 556.915 312.626C557.375 308.534 560.592 307.013 564.487 309.256C566.713 310.705 568.566 312.657 569.897 314.955C571.227 317.253 571.998 319.833 572.146 322.484V325.22C572.174 326.313 571.953 327.398 571.5 328.393L576.752 331.413C577.571 331.955 578.25 332.683 578.737 333.536C579.223 334.389 579.503 335.344 579.553 336.325C579.553 338.131 578.284 338.864 576.719 337.966L542.516 318.272C541.689 317.733 541.001 317.006 540.509 316.15C540.016 315.294 539.733 314.334 539.683 313.348C539.683 311.499 540.952 310.766 542.516 311.663Z" fill="#E6E6E6"/>
<path d="M518.073 477.72C513.478 485.488 509.058 492.239 505.95 495.478C500.053 498.213 486.201 502.437 480.785 503.137C479.834 503.258 478.871 503.033 478.072 502.502C475.938 501.102 474.286 500.872 472.043 500.095C470.281 499.493 469.537 498.651 469.209 499.001C468.87 499.398 468.7 499.913 468.734 500.434C468.769 500.955 469.006 501.442 469.395 501.791C470.237 502.591 471.17 503.288 472.174 503.87C469.772 504.466 467.266 504.511 464.844 504.001C460.15 502.765 457.939 505.019 461.112 510.117C462.207 511.934 466.714 514.855 475.774 514.067C479.006 513.893 482.225 513.528 485.413 512.973C494.101 511.113 503.762 509.319 509.703 507.502C511.913 506.633 513.891 505.263 515.48 503.498C525.47 492.108 528.785 483.989 533.162 476.615L532.79 464.579C525.7 464.339 521.914 471.221 518.073 477.72Z" fill="#FFA8A7"/>
<path d="M534.005 464.338C531.949 464.049 529.853 464.328 527.944 465.144C526.035 465.959 524.385 467.281 523.173 468.967C518.315 475.192 509.715 490.138 509.715 490.138C509.715 490.138 512.527 497.633 520.12 498.891L532.32 482.414C532.32 482.414 538.097 470.969 534.005 464.338Z" fill="#455A64"/>
<path d="M560.384 632.333H552.43V646.513H560.384V632.333Z" fill="#FFA8A7"/>
<path d="M532.811 631.578L524.868 631.862L524.463 616.851L532.811 616.566V631.578Z" fill="#FFA8A7"/>
<path d="M561.499 509.581C561.499 517.481 560.339 581.127 560.339 581.127C560.514 583.403 562.528 587.604 562.123 596.346C561.521 608.218 560.722 639.423 560.722 639.423C559.357 640.121 557.85 640.5 556.317 640.531C554.783 640.561 553.263 640.242 551.871 639.598C551.871 639.598 545.415 595.832 543.993 584.114C542.746 573.84 539.551 539.834 539.551 539.834L535.251 580.033C536.162 584.346 536.494 588.762 536.235 593.163C535.863 598.633 533.303 626.95 533.303 626.95C531.929 627.76 530.388 628.247 528.798 628.375C527.207 628.502 525.609 628.265 524.123 627.683C524.123 627.683 519.594 585.011 519.506 580C519.397 574.311 522.154 509.516 522.154 509.516L561.499 509.581Z" fill="#37474F"/>
<path d="M552.429 642.421V641.239C551.663 641.578 549.902 648.603 546.74 651.601C544.234 653.986 540.82 656.732 539.945 659.391C539.07 662.05 544.705 663.68 547.057 663.253C549.77 662.75 554.497 660.748 555.679 658.877C556.86 657.006 557.418 654.292 558.381 652.936C559.344 651.579 561.565 650.069 562.079 648.493C562.24 647.019 562.087 645.528 561.631 644.117C561.259 642.651 560.865 641.042 560.384 641.185V642.082C559.262 643.002 557.852 643.498 556.401 643.482C555.241 643.581 552.418 643.34 552.429 642.421Z" fill="#212B36"/>
<path d="M524.78 629.302C524.364 629.302 524.025 629.926 523.117 630.954C521.767 632.375 520.187 633.558 518.445 634.456C515.469 636.009 509.692 638.395 507.055 639.631C505.414 640.397 505.491 642.454 507.186 643.625C508.882 644.795 512.963 645.638 517.865 644.5C520.535 643.876 524.014 641.305 526.224 641.447C528.435 641.59 532.538 641.546 534.168 640.353C535.798 639.161 535.142 636.688 534.682 634.554C534.179 632.213 533.588 628.569 532.811 628.733V629.554C531.859 631.064 526.925 631.677 524.824 630.572L524.78 629.302Z" fill="#212B36"/>
<path d="M539.552 539.835C535.414 538.48 531.631 536.219 528.479 533.215C528.479 533.215 530.668 537.384 536.97 541.268L535.613 577.167L539.552 539.835Z" fill="#212B36"/>
<path d="M557.057 465.498C557.057 465.498 563.622 467.008 563.152 478.868L561.784 497.742V526.081C555.941 532.711 530.054 532.23 521.137 525.555C521.137 525.555 522.143 492.02 522.745 479.109C523.172 469.94 525.284 465.323 534.299 464.316L545.383 464.798L557.057 465.498Z" fill="#FF9F43"/>
<path d="M548.698 440.859C548.736 442.447 548.459 444.027 547.883 445.507C547.308 446.987 546.445 448.339 545.344 449.484C544.244 450.63 542.928 451.546 541.471 452.18C540.015 452.814 538.448 453.154 536.86 453.179C530.295 453.179 526.443 447.512 525.021 440.859C522.395 428.681 530.317 428.528 536.86 428.528C540.064 428.594 543.112 429.93 545.332 432.243C547.552 434.555 548.763 437.654 548.698 440.859Z" fill="#212B36"/>
<path d="M554.738 445.837C554.738 445.837 552.921 454.721 552.188 456.187C551.727 457.07 550.943 457.74 550 458.058L550.131 451.811L554.738 445.837Z" fill="#212B36"/>
<path d="M552.451 433.112C552.451 433.112 553.753 432.783 555.143 434.95C556.325 436.799 556.598 440.956 554.738 445.891L551.313 446.307L552.451 433.112Z" fill="#212B36"/>
<path d="M553.709 434.917L557.91 434.994C557.939 434.722 557.912 434.448 557.829 434.188C557.747 433.927 557.611 433.687 557.431 433.481C557.252 433.276 557.031 433.11 556.784 432.993C556.537 432.877 556.269 432.813 555.996 432.806C555.421 432.814 554.87 433.034 554.448 433.424C554.026 433.814 553.763 434.345 553.709 434.917Z" fill="#212B36"/>
<path d="M554.223 433.922L557.331 430.935C557.152 430.724 556.931 430.552 556.682 430.43C556.433 430.309 556.162 430.241 555.886 430.229C555.609 430.218 555.333 430.264 555.075 430.365C554.817 430.465 554.583 430.619 554.388 430.814C553.975 431.217 553.73 431.76 553.699 432.336C553.669 432.912 553.856 433.478 554.223 433.922Z" fill="#212B36"/>
<path d="M550.284 446.254C550.974 446.681 551.947 445.313 552.801 444.383C553.654 443.453 556.302 442.599 557.681 445.619C559.059 448.639 556.707 451.626 554.738 452.611C551.203 454.361 550.087 451.812 550.087 451.812L549.792 465.883C544.825 473.542 533.555 473.301 537.614 465.511V461.233C535.945 461.51 534.249 461.598 532.559 461.495C529.802 461.058 528.073 458.793 527.231 455.685C525.896 450.696 525.382 446.67 526.52 436.855C527.767 426.111 539.781 425.99 546.214 430.29C552.648 434.59 550.284 446.254 550.284 446.254Z" fill="#FFA8A7"/>
<path d="M535.316 435.18C538.183 434.895 541.016 434.304 543.894 434.086C544.515 434.01 545.143 434.04 545.754 434.173C547.942 434.775 547.68 437.335 548.03 439.119C548.632 442.204 549.124 447.423 550.284 447.445C550.634 447.445 551.947 445.18 552.8 444.371C553.269 443.673 553.535 442.858 553.566 442.018C553.785 440.749 553.895 439.447 553.993 438.156C554.081 437.062 554.19 435.968 554.19 434.873C554.24 433.637 554.141 432.399 553.894 431.186C553.62 430.154 553.094 429.207 552.363 428.429L552.144 428.188C550.702 426.68 548.951 425.501 547.012 424.731C544.223 423.686 541.297 423.048 538.325 422.838C535.357 422.628 532.403 422.262 529.473 421.744C529.305 421.695 529.127 421.695 528.959 421.744C528.84 421.81 528.74 421.904 528.667 422.019C528.595 422.134 528.552 422.265 528.543 422.4C528.423 423.08 528.498 423.78 528.76 424.419C529.021 425.058 529.458 425.61 530.02 426.011C528.04 426.164 525.764 425.136 523.86 424.61C523.706 424.545 523.541 424.511 523.373 424.511C523.206 424.511 523.041 424.545 522.887 424.61C522.696 424.744 522.56 424.942 522.504 425.168C522.365 425.682 522.346 426.221 522.449 426.744C522.623 428.327 523.212 429.837 524.156 431.12C525.63 433.04 527.714 434.402 530.064 434.983C531.794 435.316 533.566 435.383 535.316 435.18Z" fill="#212B36"/>
<path d="M537.625 461.232C537.625 461.232 543.774 459.941 545.919 458.748C547.196 458.049 548.233 456.982 548.895 455.685C548.572 456.988 547.995 458.215 547.199 459.295C545.634 461.396 537.625 462.928 537.625 462.928V461.232Z" fill="#F28F8F"/>
<path d="M539.102 444.645C539.09 444.983 539.213 445.311 539.442 445.559C539.672 445.808 539.99 445.955 540.328 445.969C540.596 445.991 540.864 445.932 541.098 445.798C541.332 445.665 541.52 445.465 541.637 445.223C541.755 444.981 541.797 444.709 541.758 444.443C541.718 444.177 541.6 443.929 541.417 443.732C541.234 443.534 540.996 443.397 540.734 443.337C540.472 443.277 540.197 443.298 539.947 443.397C539.697 443.496 539.483 443.668 539.332 443.89C539.181 444.113 539.101 444.376 539.102 444.645Z" fill="#212B36"/>
<path d="M541.072 439.338L543.709 440.858C543.901 440.483 543.945 440.05 543.831 439.644C543.717 439.239 543.455 438.891 543.096 438.67C542.922 438.572 542.728 438.511 542.529 438.492C542.329 438.473 542.128 438.495 541.937 438.558C541.747 438.621 541.572 438.723 541.423 438.857C541.274 438.991 541.154 439.155 541.072 439.338Z" fill="#212B36"/>
<path d="M538.172 453.519L535.36 454.613C535.417 454.806 535.512 454.985 535.641 455.139C535.77 455.293 535.929 455.42 536.109 455.51C536.288 455.6 536.484 455.653 536.685 455.664C536.886 455.675 537.087 455.645 537.275 455.576C537.658 455.411 537.964 455.106 538.13 454.724C538.297 454.342 538.312 453.911 538.172 453.519Z" fill="#F28F8F"/>
<path d="M527.79 440.465L530.197 438.539C530.089 438.371 529.947 438.227 529.78 438.118C529.613 438.008 529.425 437.935 529.228 437.903C529.03 437.871 528.829 437.881 528.636 437.932C528.443 437.983 528.262 438.074 528.107 438.2C527.785 438.473 527.575 438.854 527.517 439.272C527.458 439.689 527.555 440.114 527.79 440.465Z" fill="#212B36"/>
<path d="M528.85 444.283C528.869 444.522 528.957 444.751 529.104 444.941C529.251 445.131 529.45 445.274 529.677 445.353C529.904 445.431 530.149 445.442 530.382 445.384C530.615 445.326 530.826 445.201 530.989 445.025C531.153 444.849 531.261 444.629 531.301 444.392C531.341 444.155 531.312 443.912 531.216 443.691C531.12 443.471 530.962 443.284 530.762 443.152C530.561 443.02 530.326 442.949 530.086 442.948C529.917 442.954 529.751 442.993 529.597 443.063C529.443 443.134 529.305 443.234 529.19 443.358C529.075 443.482 528.985 443.628 528.927 443.786C528.869 443.945 528.843 444.114 528.85 444.283Z" fill="#212B36"/>
<path d="M535.447 443.255L535.305 451.034L530.885 450.028L535.447 443.255Z" fill="#F28F8F"/>
<path d="M430.477 508.41L437.337 504.45L440.05 501.156L433.201 505.117L430.477 508.41Z" fill="#FF9F43"/>
<path opacity="0.4" d="M430.477 508.41L437.337 504.45L440.05 501.156L433.201 505.117L430.477 508.41Z" fill="#212B36"/>
<path d="M449.132 519.177L455.992 515.216L461.714 510.15L454.865 514.1L449.132 519.177Z" fill="#FF9F43"/>
<path opacity="0.4" d="M449.132 519.177L455.992 515.216L461.714 510.15L454.865 514.1L449.132 519.177Z" fill="#212B36"/>
<path d="M507.405 532.842C509.028 535.016 510.009 537.601 510.239 540.304C508.624 538.126 507.643 535.543 507.405 532.842ZM523.347 533.05C521.038 517.349 512.603 501.823 502.558 496.013C497.733 493.223 493.269 493.125 489.691 495.214L483.236 498.934L482.875 499.153C482.587 499.311 482.31 499.487 482.043 499.678C481.513 500.043 481.015 500.453 480.555 500.904L480.336 501.112C480.14 501.309 479.932 501.538 479.746 501.757C479.56 501.976 479.275 502.315 479.056 502.611C478.592 503.222 478.171 503.866 477.798 504.536C477.601 504.876 477.415 505.237 477.24 505.631L420.859 473.091L414.01 477.041V481.417L414.59 481.745L415.137 482.063V482.938L414.043 483.584V486.122L422.325 503.628L430.509 508.366L433.234 505.083L440.455 509.405L444.602 516.506L449.175 519.143L454.898 514.066L461.922 518.126L464.285 527.874L476.091 534.702C476.675 537.183 477.405 539.627 478.279 542.022C478.356 542.262 478.455 542.514 478.553 542.787C482.47 553.072 488.696 561.88 495.72 565.939C496.562 566.439 497.444 566.867 498.357 567.22C498.84 567.411 499.333 567.576 499.834 567.712C500.272 567.829 500.709 567.927 501.147 568.007C502.529 568.259 503.945 568.259 505.327 568.007L505.896 567.865C506.168 567.81 506.435 567.733 506.694 567.635L507.307 567.395C507.524 567.316 507.733 567.217 507.931 567.099C508.133 567.012 508.33 566.913 508.521 566.804L508.806 566.629C508.858 566.612 508.906 566.586 508.948 566.552C510.513 565.655 514.364 563.423 515.415 562.832C520.623 559.812 523.993 552.175 523.993 541.376C523.984 538.588 523.768 535.805 523.347 533.05Z" fill="#FF9F43"/>
<path d="M505.403 546.092C502.69 544.528 500.502 539.888 500.502 535.731C500.502 531.573 502.69 529.461 505.403 531.015C508.117 532.569 510.294 537.219 510.294 541.387C510.294 545.556 508.106 547.657 505.403 546.092ZM516.487 537C514.189 521.31 505.754 505.773 495.698 499.974C491.037 497.283 486.726 497.086 483.225 498.935L482.864 499.154C482.577 499.312 482.299 499.487 482.033 499.679C481.502 500.044 481.004 500.454 480.545 500.904L480.326 501.112C480.129 501.309 479.921 501.539 479.735 501.758C479.549 501.976 479.264 502.316 479.046 502.611C478.581 503.222 478.161 503.866 477.787 504.537C477.59 504.876 477.404 505.237 477.229 505.631C476.209 507.746 475.473 509.986 475.041 512.294L413.999 477.041V481.418L414.579 481.746L415.126 482.063V482.938L414.032 483.584V486.122L422.314 503.629L430.499 508.366L433.223 505.084L440.444 509.406L444.591 516.507L449.165 519.143L454.887 514.067L461.911 518.126L464.275 527.875L476.091 534.702C476.675 537.183 477.406 539.628 478.28 542.022C478.356 542.263 478.455 542.514 478.553 542.788C482.47 553.073 488.696 561.881 495.72 565.94C496.562 566.439 497.444 566.867 498.357 567.22C498.84 567.412 499.333 567.576 499.834 567.712C500.272 567.829 500.71 567.927 501.147 568.008C502.529 568.26 503.945 568.26 505.327 568.008L505.896 567.865C506.168 567.811 506.435 567.734 506.694 567.636L507.307 567.395C507.524 567.317 507.733 567.218 507.931 567.1C508.133 567.012 508.33 566.913 508.522 566.804L508.806 566.629C508.858 566.612 508.906 566.586 508.948 566.553C513.938 563.401 517.143 555.874 517.143 545.337C517.125 542.546 516.906 539.76 516.487 537Z" fill="#FF9F43"/>
<path opacity="0.4" d="M510.294 541.376C510.294 545.544 508.105 547.656 505.403 546.092C502.7 544.527 500.501 539.899 500.501 535.73C500.501 531.561 502.689 529.45 505.403 531.014C506.184 531.49 506.864 532.114 507.405 532.852C507.64 535.554 508.621 538.138 510.239 540.314C510.279 540.667 510.297 541.021 510.294 541.376Z" fill="#212B36"/>
<path opacity="0.4" d="M523.971 541.365C523.971 552.165 520.601 559.802 515.393 562.822C514.299 563.412 510.492 565.644 508.927 566.542C513.916 563.39 517.122 555.863 517.122 545.326C517.11 542.539 516.898 539.756 516.487 537C514.19 521.31 505.754 505.773 495.699 499.974C491.038 497.283 486.727 497.086 483.226 498.935L489.681 495.215C493.259 493.125 497.723 493.223 502.548 496.013C512.603 501.823 521.039 517.349 523.337 533.05C523.753 535.802 523.966 538.582 523.971 541.365Z" fill="white"/>
<path d="M517.122 545.305C517.122 555.842 513.916 563.369 508.927 566.52C510.491 565.623 514.343 563.391 515.393 562.8C520.601 559.78 523.971 552.143 523.971 541.344C523.971 540.95 523.971 540.545 523.971 540.141L517.122 544.101C517.111 544.528 517.122 544.922 517.122 545.305Z" fill="#FF9F43"/>
<path opacity="0.1" d="M517.122 545.305C517.122 555.842 513.916 563.369 508.927 566.52C510.491 565.623 514.343 563.391 515.393 562.8C520.601 559.78 523.971 552.143 523.971 541.344C523.971 540.95 523.971 540.545 523.971 540.141L517.122 544.101C517.111 544.528 517.122 544.922 517.122 545.305Z" fill="#212B36"/>
<path opacity="0.15" d="M475.303 516.769V518.99L414.01 483.606L415.137 482.949V482.03L475.303 516.769Z" fill="#212B36"/>
<path opacity="0.15" d="M475.303 517.688V518.99L414.01 483.606L415.137 482.949V482.938L475.303 517.688Z" fill="#212B36"/>
<path opacity="0.15" d="M501.957 562.81C499.634 562.749 497.369 562.074 495.392 560.851C485.403 555.085 477.273 537.929 477.273 522.611C477.273 513.672 479.976 506.998 484.692 504.273C487.974 502.37 491.858 502.61 495.939 504.963C505.918 510.729 514.047 527.94 514.047 543.258C514.047 552.186 511.345 558.871 506.629 561.584C505.207 562.397 503.595 562.819 501.957 562.81ZM489.429 504.109C487.971 504.101 486.537 504.479 485.272 505.203C480.972 507.687 478.4 514.197 478.4 522.6C478.4 537.568 486.278 554.33 495.972 559.888C499.681 562.077 503.194 562.274 506.115 560.589C510.415 558.105 512.986 551.606 512.986 543.203C512.986 528.224 505.108 511.473 495.425 505.904C493.615 504.803 491.547 504.199 489.429 504.153V504.109Z" fill="#212B36"/>
<path opacity="0.4" d="M477.185 505.609C476.165 507.724 475.429 509.964 474.997 512.272L413.955 477.019L420.804 473.069L477.185 505.609Z" fill="white"/>
<path d="M556.522 509.033C559.717 502.982 563.371 489.393 565.188 482.533C567.77 472.795 563.59 466.668 558.842 466.416C555.876 466.876 546.106 502.402 546.106 502.402C545.012 503.267 530.164 510.805 525.394 512.698C524.541 513.021 523.599 513.021 522.746 512.698C520.459 511.867 518.895 512.02 516.652 511.801C514.89 511.626 514.004 511.002 513.774 511.374C513.565 511.836 513.538 512.359 513.699 512.84C513.859 513.321 514.194 513.723 514.638 513.967C515.604 514.53 516.632 514.978 517.702 515.302C515.784 515.884 513.786 516.153 511.783 516.101C507.187 516.002 505.535 517.994 509.102 522.666C511.29 525.576 514.912 526.495 522.998 523.705C525.317 522.895 528.468 521.331 531.411 520.27C537.473 518.081 539.07 517.819 543.688 516.254C550.417 513.978 555.1 511.724 556.522 509.033Z" fill="#FFA8A7"/>
<path d="M557.057 465.498C559.847 465.881 562.528 466.505 564.18 468.78C565.832 471.056 567.156 474.251 565.537 482.95C564.297 489.067 562.637 495.092 560.569 500.981C560.569 500.981 554.07 503.76 547.166 496.714L551.915 478.354C551.915 478.354 552.68 466.417 557.057 465.498Z" fill="#455A64"/>
</svg>
