<svg width="210" height="31" viewBox="0 0 210 31" fill="none" xmlns="http://www.w3.org/2000/svg">
    <path d="M64.1289 25.4702V8.89152H75.1058V11.7815H67.6341V15.7319H74.3773V18.6218H67.6341V25.4702H64.1289ZM78.2507 25.4702H74.4946L80.2178 8.89152H84.7349L90.45 25.4702H86.6939L82.5411 12.68H82.4116L78.2507 25.4702ZM78.016 18.9537H86.8882V21.6898H78.016V18.9537ZM95.9506 8.89152V25.4702H92.4454V8.89152H95.9506ZM98.8345 25.4702V8.89152H105.375C106.627 8.89152 107.696 9.11549 108.581 9.56341C109.471 10.0059 110.149 10.6347 110.613 11.4496C111.082 12.2591 111.317 13.2116 111.317 14.3071C111.317 15.4081 111.08 16.3552 110.605 17.1485C110.13 17.9364 109.442 18.5408 108.54 18.9618C107.645 19.3827 106.56 19.5932 105.286 19.5932H100.907V16.7761H104.72C105.389 16.7761 105.945 16.6844 106.387 16.5009C106.83 16.3174 107.159 16.0422 107.375 15.6752C107.596 15.3082 107.707 14.8522 107.707 14.3071C107.707 13.7567 107.596 13.2925 107.375 12.9148C107.159 12.537 106.827 12.251 106.379 12.0567C105.937 11.857 105.378 11.7572 104.703 11.7572H102.34V25.4702H98.8345ZM107.788 17.9256L111.908 25.4702H108.039L104.007 17.9256H107.788ZM119.005 30.133V13.0362H122.405V15.1247H122.559C122.71 14.7901 122.929 14.4501 123.215 14.1047C123.506 13.754 123.884 13.4625 124.348 13.2305C124.818 12.993 125.4 12.8743 126.097 12.8743C127.003 12.8743 127.84 13.1118 128.606 13.5867C129.372 14.0562 129.985 14.7658 130.444 15.7157C130.902 16.6601 131.132 17.8447 131.132 19.2694C131.132 20.6563 130.908 21.8274 130.46 22.7827C130.017 23.7325 129.413 24.4529 128.647 24.944C127.886 25.4297 127.033 25.6726 126.089 25.6726C125.419 25.6726 124.85 25.562 124.38 25.3407C123.916 25.1194 123.536 24.8415 123.239 24.5069C122.942 24.1669 122.716 23.8242 122.559 23.4788H122.454V30.133H119.005ZM122.381 19.2532C122.381 19.9926 122.484 20.6375 122.689 21.1879C122.894 21.7384 123.19 22.1674 123.579 22.475C123.968 22.7773 124.44 22.9284 124.996 22.9284C125.557 22.9284 126.032 22.7746 126.42 22.4669C126.809 22.1539 127.103 21.7222 127.303 21.1717C127.508 20.6159 127.61 19.9764 127.61 19.2532C127.61 18.5354 127.511 17.904 127.311 17.359C127.111 16.8139 126.817 16.3876 126.429 16.0799C126.04 15.7723 125.562 15.6185 124.996 15.6185C124.434 15.6185 123.96 15.7669 123.571 16.0638C123.188 16.3606 122.894 16.7815 122.689 17.3266C122.484 17.8716 122.381 18.5139 122.381 19.2532ZM133.431 25.4702V13.0362H136.774V15.2057H136.904C137.13 14.4339 137.511 13.8511 138.045 13.4571C138.579 13.0578 139.194 12.8581 139.891 12.8581C140.063 12.8581 140.249 12.8689 140.449 12.8905C140.649 12.9121 140.824 12.9418 140.975 12.9795V16.0395C140.813 15.9909 140.589 15.9477 140.303 15.9099C140.017 15.8722 139.756 15.8533 139.518 15.8533C139.011 15.8533 138.558 15.9639 138.158 16.1852C137.764 16.401 137.451 16.7033 137.219 17.0918C136.993 17.4804 136.879 17.9283 136.879 18.4356V25.4702H133.431ZM147.797 25.7131C146.54 25.7131 145.453 25.4459 144.535 24.9117C143.623 24.372 142.919 23.6218 142.422 22.6612C141.926 21.6952 141.678 20.5754 141.678 19.3018C141.678 18.0174 141.926 16.8948 142.422 15.9342C142.919 14.9682 143.623 14.2181 144.535 13.6838C145.453 13.1441 146.54 12.8743 147.797 12.8743C149.055 12.8743 150.14 13.1441 151.052 13.6838C151.969 14.2181 152.676 14.9682 153.173 15.9342C153.669 16.8948 153.917 18.0174 153.917 19.3018C153.917 20.5754 153.669 21.6952 153.173 22.6612C152.676 23.6218 151.969 24.372 151.052 24.9117C150.14 25.4459 149.055 25.7131 147.797 25.7131ZM147.814 23.0417C148.386 23.0417 148.863 22.8798 149.246 22.556C149.63 22.2268 149.918 21.7789 150.113 21.2122C150.312 20.6456 150.412 20.0006 150.412 19.2775C150.412 18.5543 150.312 17.9094 150.113 17.3428C149.918 16.7761 149.63 16.3282 149.246 15.999C148.863 15.6698 148.386 15.5052 147.814 15.5052C147.236 15.5052 146.751 15.6698 146.357 15.999C145.968 16.3282 145.674 16.7761 145.474 17.3428C145.28 17.9094 145.183 18.5543 145.183 19.2775C145.183 20.0006 145.28 20.6456 145.474 21.2122C145.674 21.7789 145.968 22.2268 146.357 22.556C146.751 22.8798 147.236 23.0417 147.814 23.0417ZM162.773 13.0362V15.6266H155.285V13.0362H162.773ZM156.985 10.0572H160.434V21.6493C160.434 21.9678 160.482 22.216 160.58 22.3941C160.677 22.5668 160.812 22.6882 160.984 22.7584C161.162 22.8285 161.367 22.8636 161.6 22.8636C161.761 22.8636 161.923 22.8501 162.085 22.8231C162.247 22.7907 162.371 22.7665 162.458 22.7503L163 25.3164C162.827 25.3704 162.584 25.4324 162.271 25.5026C161.958 25.5781 161.578 25.624 161.13 25.6402C160.299 25.6726 159.57 25.562 158.944 25.3083C158.324 25.0547 157.841 24.6607 157.495 24.1264C157.15 23.5922 156.98 22.9176 156.985 22.1027V10.0572ZM170.504 25.7131C169.247 25.7131 168.159 25.4459 167.242 24.9117C166.33 24.372 165.625 23.6218 165.129 22.6612C164.633 21.6952 164.384 20.5754 164.384 19.3018C164.384 18.0174 164.633 16.8948 165.129 15.9342C165.625 14.9682 166.33 14.2181 167.242 13.6838C168.159 13.1441 169.247 12.8743 170.504 12.8743C171.762 12.8743 172.846 13.1441 173.758 13.6838C174.676 14.2181 175.383 14.9682 175.879 15.9342C176.376 16.8948 176.624 18.0174 176.624 19.3018C176.624 20.5754 176.376 21.6952 175.879 22.6612C175.383 23.6218 174.676 24.372 173.758 24.9117C172.846 25.4459 171.762 25.7131 170.504 25.7131ZM170.52 23.0417C171.092 23.0417 171.57 22.8798 171.953 22.556C172.336 22.2268 172.625 21.7789 172.819 21.2122C173.019 20.6456 173.119 20.0006 173.119 19.2775C173.119 18.5543 173.019 17.9094 172.819 17.3428C172.625 16.7761 172.336 16.3282 171.953 15.999C171.57 15.6698 171.092 15.5052 170.52 15.5052C169.943 15.5052 169.457 15.6698 169.063 15.999C168.675 16.3282 168.381 16.7761 168.181 17.3428C167.987 17.9094 167.889 18.5543 167.889 19.2775C167.889 20.0006 167.987 20.6456 168.181 21.2122C168.381 21.7789 168.675 22.2268 169.063 22.556C169.457 22.8798 169.943 23.0417 170.52 23.0417ZM184.484 25.7131C183.211 25.7131 182.115 25.4432 181.198 24.9036C180.286 24.3585 179.584 23.603 179.093 22.6369C178.607 21.6709 178.364 20.5592 178.364 19.3018C178.364 18.0282 178.61 16.911 179.101 15.9504C179.598 14.9844 180.302 14.2316 181.214 13.6919C182.126 13.1468 183.211 12.8743 184.468 12.8743C185.553 12.8743 186.503 13.0713 187.318 13.4652C188.132 13.8592 188.777 14.4124 189.252 15.1247C189.727 15.8371 189.989 16.6736 190.038 17.6342H186.783C186.692 17.0136 186.449 16.5144 186.055 16.1366C185.666 15.7534 185.156 15.5619 184.525 15.5619C183.99 15.5619 183.524 15.7076 183.124 15.999C182.73 16.285 182.423 16.7033 182.201 17.2537C181.98 17.8042 181.87 18.4707 181.87 19.2532C181.87 20.0465 181.978 20.7211 182.193 21.277C182.415 21.8328 182.725 22.2565 183.124 22.5479C183.524 22.8393 183.99 22.985 184.525 22.985C184.919 22.985 185.272 22.9041 185.585 22.7422C185.904 22.5803 186.165 22.3455 186.37 22.0379C186.581 21.7249 186.719 21.3498 186.783 20.9127H190.038C189.984 21.8625 189.724 22.699 189.26 23.4222C188.802 24.1399 188.168 24.7012 187.358 25.1059C186.549 25.5107 185.591 25.7131 184.484 25.7131ZM197.863 25.7131C196.606 25.7131 195.519 25.4459 194.601 24.9117C193.689 24.372 192.985 23.6218 192.488 22.6612C191.992 21.6952 191.744 20.5754 191.744 19.3018C191.744 18.0174 191.992 16.8948 192.488 15.9342C192.985 14.9682 193.689 14.2181 194.601 13.6838C195.519 13.1441 196.606 12.8743 197.863 12.8743C199.121 12.8743 200.206 13.1441 201.118 13.6838C202.035 14.2181 202.742 14.9682 203.239 15.9342C203.735 16.8948 203.983 18.0174 203.983 19.3018C203.983 20.5754 203.735 21.6952 203.239 22.6612C202.742 23.6218 202.035 24.372 201.118 24.9117C200.206 25.4459 199.121 25.7131 197.863 25.7131ZM197.88 23.0417C198.452 23.0417 198.929 22.8798 199.312 22.556C199.696 22.2268 199.984 21.7789 200.179 21.2122C200.378 20.6456 200.478 20.0006 200.478 19.2775C200.478 18.5543 200.378 17.9094 200.179 17.3428C199.984 16.7761 199.696 16.3282 199.312 15.999C198.929 15.6698 198.452 15.5052 197.88 15.5052C197.302 15.5052 196.816 15.6698 196.422 15.999C196.034 16.3282 195.74 16.7761 195.54 17.3428C195.346 17.9094 195.249 18.5543 195.249 19.2775C195.249 20.0006 195.346 20.6456 195.54 21.2122C195.74 21.7789 196.034 22.2268 196.422 22.556C196.816 22.8798 197.302 23.0417 197.88 23.0417ZM209.674 8.89152V25.4702H206.226V8.89152H209.674Z" fill="#212B36"/>
    <path d="M47.1801 11.5528C47.0331 6.66681 43.886 3.85419 41.2309 2.35258C39.4394 1.34184 37.4385 0.625685 35.3329 0.241676C35.215 0.22291 35.0938 0.224225 34.9764 0.245547C34.8591 0.266869 34.7479 0.307768 34.6495 0.365847C34.4551 0.481497 34.3215 0.656504 34.277 0.853868C34.236 1.05241 34.289 1.25661 34.4245 1.42245C34.56 1.58829 34.7672 1.70248 35.0015 1.74039C36.8819 2.09559 38.6684 2.74176 40.2707 3.64627C40.6329 3.85419 40.9712 4.07077 41.2958 4.29889C39.5745 3.63304 37.7008 3.29585 35.8079 3.3113C35.661 3.3113 35.514 3.3113 35.3671 3.3113C29.7186 3.44125 26.4826 6.01707 23.5815 6.01707C20.6804 6.01707 17.4614 3.44991 11.813 3.31996C11.666 3.31996 11.5191 3.31996 11.3721 3.31996C9.48664 3.30534 7.62031 3.6405 5.90477 4.30178C6.22598 4.07654 6.56427 3.86285 6.9299 3.65782C8.52999 2.75127 10.3156 2.10401 12.1957 1.74906C12.3407 1.72685 12.4771 1.67484 12.5927 1.59761C12.7084 1.52037 12.7998 1.42028 12.8588 1.30616C12.9179 1.19204 12.9429 1.06738 12.9315 0.943187C12.9202 0.818991 12.8728 0.699064 12.7937 0.593975C12.7311 0.509343 12.6485 0.436582 12.5511 0.380286C12.4534 0.324619 12.3446 0.284495 12.2298 0.26189C12.1169 0.244242 12.0011 0.244242 11.8881 0.26189C9.77689 0.638517 7.76887 1.34884 5.96969 2.35547C4.19607 3.32282 2.72826 4.64099 1.6934 6.19581C0.658547 7.75063 0.0878532 9.49522 0.030754 11.2785C0.0102513 11.5018 0 11.727 0 11.9542C0 16.7276 4.61652 20.5971 11.3721 20.5971C11.5191 20.5971 11.666 20.5971 11.813 20.5971C16.0741 20.4989 18.9684 19.0088 21.3809 18.2869L19.0128 23.5887C18.9619 23.7039 18.9443 23.8276 18.9616 23.9497C18.9798 24.0712 19.0325 24.1872 19.1152 24.2877C19.1979 24.3883 19.3081 24.4705 19.4365 24.5272C19.5643 24.5833 19.706 24.613 19.85 24.6139H26.8892C27.067 24.6131 27.2405 24.568 27.388 24.4841C27.5355 24.4003 27.6505 24.2815 27.7184 24.1427C27.7863 24.0039 27.8041 23.8512 27.7697 23.7039C27.7353 23.5565 27.6501 23.421 27.5248 23.3144C27.3554 23.173 27.1273 23.0932 26.8892 23.092H21.1588L23.4585 17.8942H23.5781C26.4655 17.8942 29.7289 20.47 35.3603 20.6028H35.8011C42.5601 20.6028 47.1766 16.7333 47.1766 11.96C47.1903 11.8185 47.1869 11.6856 47.1801 11.5528ZM12.1683 15.3905C8.65213 15.3905 6.19864 13.9785 6.19864 11.9542C6.19864 9.92991 8.65213 8.51782 12.1683 8.51782C15.8281 8.51782 18.9274 10.0916 18.9274 11.9542C18.9274 13.8168 15.8281 15.3905 12.1683 15.3905ZM35.0117 15.3905C31.352 15.3905 28.2527 13.8168 28.2527 11.9542C28.2527 10.0916 31.3281 8.51782 35.0117 8.51782C38.5245 8.51782 40.978 9.9328 40.978 11.9542C40.978 13.9756 38.5245 15.3905 35.0117 15.3905Z" fill="#212B36"/>
    <path d="M14.4782 13.0772C14.7411 13.0772 14.9981 13.0113 15.2167 12.8879C15.4353 12.7645 15.6056 12.589 15.7063 12.3838C15.8069 12.1785 15.8332 11.9526 15.7819 11.7347C15.7306 11.5168 15.604 11.3167 15.4181 11.1596C15.2322 11.0025 14.9954 10.8955 14.7375 10.8522C14.4797 10.8088 14.2124 10.8311 13.9695 10.9161C13.7266 11.0011 13.519 11.1451 13.3729 11.3298C13.2269 11.5145 13.1489 11.7317 13.1489 11.9539C13.1489 12.2518 13.289 12.5375 13.5383 12.7482C13.7875 12.9588 14.1256 13.0772 14.4782 13.0772Z" fill="#212B36"/>
    <path d="M37.6295 13.0772C37.8925 13.0772 38.1494 13.0113 38.368 12.8879C38.5866 12.7645 38.757 12.589 38.8576 12.3838C38.9582 12.1785 38.9846 11.9526 38.9333 11.7347C38.882 11.5168 38.7554 11.3167 38.5695 11.1596C38.3836 11.0025 38.1467 10.8955 37.8889 10.8522C37.631 10.8088 37.3638 10.8311 37.1209 10.9161C36.878 11.0011 36.6704 11.1451 36.5243 11.3298C36.3783 11.5145 36.3003 11.7317 36.3003 11.9539C36.3003 12.2518 36.4403 12.5375 36.6896 12.7482C36.9389 12.9588 37.277 13.0772 37.6295 13.0772Z" fill="#212B36"/>
    <path d="M33.4467 24.9286C29.5717 28.1051 19.8808 27.5708 19.7783 27.5651C19.6587 27.5556 19.538 27.5664 19.4234 27.5968C19.3088 27.6273 19.2025 27.6768 19.1108 27.7424C19.0192 27.8081 18.9439 27.8885 18.8895 27.979C18.8352 28.0696 18.8027 28.1684 18.7942 28.2697C18.786 28.3675 18.8011 28.4657 18.8386 28.5584C18.8756 28.6536 18.9345 28.7416 19.0119 28.8174C19.0893 28.8932 19.1837 28.9554 19.2896 29.0003C19.396 29.0459 19.5123 29.0724 19.6313 29.0782C19.7373 29.0782 20.448 29.1244 21.521 29.1244C24.7673 29.1244 31.3452 28.7606 34.694 26.0202C34.799 25.9325 34.8772 25.8245 34.9216 25.7055C34.9659 25.5866 34.9752 25.4602 34.9486 25.3375C34.922 25.2148 34.8603 25.0994 34.7689 25.0015C34.6774 24.9036 34.559 24.826 34.424 24.7756C34.3165 24.7347 34.2002 24.7131 34.0823 24.712C33.8438 24.7086 33.6132 24.7843 33.4399 24.9228L33.4467 24.9286Z" fill="#212B36"/>
</svg>
