<svg width="48" height="30" viewBox="0 0 48 30" fill="none" xmlns="http://www.w3.org/2000/svg">
    <path d="M47.1801 11.5528C47.0331 6.66681 43.886 3.85419 41.2309 2.35258C39.4394 1.34184 37.4385 0.625685 35.3329 0.241676C35.215 0.22291 35.0938 0.224225 34.9764 0.245547C34.8591 0.266869 34.7479 0.307768 34.6495 0.365847C34.4551 0.481497 34.3215 0.656504 34.277 0.853868C34.236 1.05241 34.289 1.25661 34.4245 1.42245C34.56 1.58829 34.7672 1.70248 35.0015 1.74039C36.8819 2.09559 38.6684 2.74176 40.2707 3.64627C40.6329 3.85419 40.9712 4.07077 41.2958 4.29889C39.5745 3.63304 37.7008 3.29585 35.8079 3.3113C35.661 3.3113 35.514 3.3113 35.3671 3.3113C29.7186 3.44125 26.4826 6.01707 23.5815 6.01707C20.6804 6.01707 17.4614 3.44991 11.813 3.31996C11.666 3.31996 11.5191 3.31996 11.3721 3.31996C9.48664 3.30534 7.62031 3.6405 5.90477 4.30178C6.22598 4.07654 6.56427 3.86285 6.9299 3.65782C8.53 2.75127 10.3156 2.10401 12.1957 1.74906C12.3407 1.72685 12.4771 1.67484 12.5927 1.59761C12.7084 1.52037 12.7998 1.42028 12.8588 1.30616C12.9179 1.19204 12.9429 1.06738 12.9315 0.943187C12.9202 0.818991 12.8728 0.699064 12.7937 0.593975C12.7311 0.509343 12.6485 0.436582 12.551 0.380286C12.4534 0.324619 12.3445 0.284495 12.2298 0.26189C12.1169 0.244242 12.0011 0.244242 11.8881 0.26189C9.77689 0.638517 7.76887 1.34884 5.96969 2.35547C4.19607 3.32282 2.72826 4.64099 1.6934 6.19581C0.658547 7.75063 0.0878532 9.49522 0.030754 11.2785C0.0102513 11.5018 0 11.727 0 11.9542C0 16.7276 4.61652 20.5971 11.3721 20.5971C11.5191 20.5971 11.666 20.5971 11.813 20.5971C16.0741 20.4989 18.9684 19.0088 21.3809 18.2869L19.0128 23.5887C18.9619 23.7039 18.9443 23.8276 18.9616 23.9497C18.9798 24.0712 19.0325 24.1872 19.1152 24.2877C19.1979 24.3883 19.3081 24.4705 19.4365 24.5272C19.5643 24.5833 19.706 24.613 19.85 24.6139H26.8892C27.067 24.6131 27.2405 24.568 27.388 24.4841C27.5355 24.4003 27.6505 24.2816 27.7184 24.1427C27.7863 24.0039 27.8041 23.8512 27.7697 23.7039C27.7353 23.5565 27.6501 23.421 27.5248 23.3144C27.3554 23.173 27.1273 23.0932 26.8892 23.092H21.1588L23.4585 17.8942H23.5781C26.4655 17.8942 29.7289 20.47 35.3603 20.6028H35.8011C42.5601 20.6028 47.1766 16.7333 47.1766 11.96C47.1903 11.8185 47.1869 11.6856 47.1801 11.5528ZM12.1683 15.3905C8.65213 15.3905 6.19864 13.9785 6.19864 11.9542C6.19864 9.92991 8.65213 8.51782 12.1683 8.51782C15.8281 8.51782 18.9274 10.0916 18.9274 11.9542C18.9274 13.8168 15.8281 15.3905 12.1683 15.3905ZM35.0117 15.3905C31.352 15.3905 28.2527 13.8168 28.2527 11.9542C28.2527 10.0916 31.3281 8.51782 35.0117 8.51782C38.5245 8.51782 40.978 9.9328 40.978 11.9542C40.978 13.9756 38.5245 15.3905 35.0117 15.3905Z" fill="#212B36"/>
    <path d="M14.4782 13.0772C14.7411 13.0772 14.9981 13.0113 15.2167 12.8879C15.4353 12.7645 15.6056 12.589 15.7063 12.3838C15.8069 12.1785 15.8332 11.9526 15.7819 11.7347C15.7306 11.5168 15.604 11.3167 15.4181 11.1596C15.2322 11.0025 14.9954 10.8955 14.7375 10.8522C14.4797 10.8088 14.2124 10.8311 13.9695 10.9161C13.7266 11.0011 13.519 11.1451 13.3729 11.3298C13.2269 11.5145 13.1489 11.7317 13.1489 11.9539C13.1489 12.2518 13.289 12.5375 13.5383 12.7482C13.7875 12.9588 14.1256 13.0772 14.4782 13.0772Z" fill="#212B36"/>
    <path d="M37.6293 13.0772C37.8922 13.0772 38.1492 13.0113 38.3678 12.8879C38.5864 12.7645 38.7568 12.589 38.8574 12.3838C38.958 12.1785 38.9843 11.9526 38.933 11.7347C38.8817 11.5168 38.7551 11.3167 38.5692 11.1596C38.3833 11.0025 38.1465 10.8955 37.8886 10.8522C37.6308 10.8088 37.3635 10.8311 37.1206 10.9161C36.8777 11.0011 36.6701 11.1451 36.5241 11.3298C36.378 11.5145 36.3 11.7317 36.3 11.9539C36.3 12.2518 36.4401 12.5375 36.6894 12.7482C36.9387 12.9588 37.2768 13.0772 37.6293 13.0772Z" fill="#212B36"/>
    <path d="M33.447 24.9286C29.572 28.1051 19.881 27.5708 19.7785 27.5651C19.6589 27.5556 19.5382 27.5664 19.4236 27.5968C19.309 27.6273 19.2027 27.6768 19.1111 27.7424C19.0194 27.8081 18.9442 27.8885 18.8898 27.979C18.8354 28.0696 18.803 28.1684 18.7944 28.2697C18.7862 28.3675 18.8013 28.4657 18.8388 28.5584C18.8758 28.6536 18.9347 28.7416 19.0121 28.8174C19.0895 28.8932 19.1839 28.9554 19.2899 29.0003C19.3962 29.0459 19.5125 29.0724 19.6316 29.0782C19.7375 29.0782 20.4483 29.1244 21.5213 29.1244C24.7675 29.1244 31.3454 28.7606 34.6942 26.0202C34.7993 25.9325 34.8774 25.8245 34.9218 25.7055C34.9662 25.5866 34.9755 25.4602 34.9489 25.3375C34.9222 25.2148 34.8605 25.0994 34.7691 25.0015C34.6777 24.9036 34.5593 24.826 34.4243 24.7756C34.3168 24.7347 34.2004 24.7131 34.0826 24.712C33.844 24.7086 33.6134 24.7843 33.4401 24.9228L33.447 24.9286Z" fill="#212B36"/>
</svg>
