<svg width="299" height="42" viewBox="0 0 299 42" fill="none" xmlns="http://www.w3.org/2000/svg">
    <path d="M91.25 35.375V11.8198H106.846V15.9259H96.2302V21.5387H105.811V25.6447H96.2302V35.375H91.25Z" fill="#FF9F43"/>
    <path d="M111.314 35.375H105.978L114.109 11.8198H120.527L128.647 35.375H123.311L117.41 17.2026H117.226L111.314 35.375ZM110.981 26.1163H123.587V30.0038H110.981V26.1163Z" fill="#FF9F43"/>
    <path d="M136.463 11.8198V35.375H131.482V11.8198H136.463Z" fill="#FF9F43"/>
    <path d="M140.56 35.375V11.8198H149.853C151.632 11.8198 153.15 12.138 154.408 12.7745C155.673 13.4032 156.635 14.2965 157.295 15.4543C157.962 16.6045 158.296 17.9578 158.296 19.5144C158.296 21.0786 157.958 22.4243 157.283 23.5514C156.609 24.6709 155.631 25.5297 154.35 26.1278C153.078 26.7259 151.536 27.0249 149.727 27.0249H143.505V23.0224H148.922C149.873 23.0224 150.662 22.892 151.291 22.6313C151.92 22.3706 152.388 21.9795 152.694 21.4581C153.009 20.9367 153.166 20.2888 153.166 19.5144C153.166 18.7323 153.009 18.0728 152.694 17.5361C152.388 16.9994 151.916 16.593 151.28 16.3169C150.651 16.0332 149.857 15.8914 148.899 15.8914H145.54V35.375H140.56ZM153.281 24.6556L159.135 35.375H153.637L147.91 24.6556H153.281Z" fill="#FF9F43"/>
    <path d="M169.219 41.9999V17.7086H174.05V20.676H174.268C174.483 20.2006 174.794 19.7176 175.2 19.2268C175.614 18.7284 176.151 18.3144 176.81 17.9847C177.477 17.6473 178.305 17.4786 179.295 17.4786C180.583 17.4786 181.771 17.816 182.86 18.4907C183.949 19.1578 184.819 20.1661 185.471 21.5156C186.123 22.8575 186.449 24.5406 186.449 26.5648C186.449 28.5354 186.13 30.1993 185.494 31.5565C184.865 32.906 184.006 33.9297 182.918 34.6274C181.836 35.3175 180.625 35.6626 179.283 35.6626C178.332 35.6626 177.523 35.5054 176.856 35.191C176.197 34.8766 175.656 34.4818 175.234 34.0064C174.813 33.5233 174.491 33.0364 174.268 32.5457H174.119V41.9999H169.219ZM174.015 26.5418C174.015 27.5923 174.161 28.5086 174.452 29.2907C174.744 30.0728 175.165 30.6824 175.718 31.1195C176.27 31.5489 176.941 31.7635 177.73 31.7635C178.528 31.7635 179.203 31.545 179.755 31.108C180.307 30.6632 180.725 30.0498 181.008 29.2677C181.3 28.4779 181.445 27.5693 181.445 26.5418C181.445 25.522 181.303 24.6249 181.02 23.8505C180.736 23.076 180.318 22.4703 179.766 22.0332C179.214 21.5962 178.535 21.3776 177.73 21.3776C176.933 21.3776 176.258 21.5885 175.706 22.0102C175.162 22.4319 174.744 23.03 174.452 23.8045C174.161 24.5789 174.015 25.4914 174.015 26.5418Z" fill="#FF9F43"/>
    <path d="M189.715 35.375V17.7086H194.465V20.791H194.649C194.971 19.6946 195.512 18.8665 196.271 18.3067C197.03 17.7393 197.904 17.4556 198.893 17.4556C199.139 17.4556 199.403 17.4709 199.687 17.5016C199.971 17.5323 200.22 17.5744 200.434 17.6281V21.9757C200.204 21.9067 199.886 21.8454 199.48 21.7917C199.073 21.738 198.701 21.7112 198.364 21.7112C197.643 21.7112 196.999 21.8684 196.432 22.1827C195.872 22.4894 195.427 22.9188 195.098 23.4709C194.776 24.023 194.615 24.6594 194.615 25.3802V35.375H189.715Z" fill="#FF9F43"/>
    <path d="M210.127 35.7201C208.341 35.7201 206.796 35.3405 205.492 34.5814C204.196 33.8147 203.196 32.7488 202.49 31.384C201.785 30.0115 201.432 28.4204 201.432 26.6108C201.432 24.7859 201.785 23.191 202.49 21.8262C203.196 20.4537 204.196 19.3879 205.492 18.6288C206.796 17.862 208.341 17.4786 210.127 17.4786C211.914 17.4786 213.455 17.862 214.751 18.6288C216.054 19.3879 217.059 20.4537 217.764 21.8262C218.47 23.191 218.823 24.7859 218.823 26.6108C218.823 28.4204 218.47 30.0115 217.764 31.384C217.059 32.7488 216.054 33.8147 214.751 34.5814C213.455 35.3405 211.914 35.7201 210.127 35.7201ZM210.15 31.9246C210.963 31.9246 211.642 31.6945 212.186 31.2345C212.731 30.7667 213.141 30.1303 213.417 29.3252C213.701 28.5201 213.842 27.6038 213.842 26.5763C213.842 25.5489 213.701 24.6326 213.417 23.8275C213.141 23.0224 212.731 22.3859 212.186 21.9182C211.642 21.4505 210.963 21.2166 210.15 21.2166C209.33 21.2166 208.64 21.4505 208.08 21.9182C207.528 22.3859 207.11 23.0224 206.826 23.8275C206.55 24.6326 206.412 25.5489 206.412 26.5763C206.412 27.6038 206.55 28.5201 206.826 29.3252C207.11 30.1303 207.528 30.7667 208.08 31.2345C208.64 31.6945 209.33 31.9246 210.15 31.9246Z" fill="#FF9F43"/>
    <path d="M231.405 17.7086V21.3891H220.766V17.7086H231.405ZM223.182 13.4761H228.081V29.9463C228.081 30.3987 228.15 30.7514 228.288 31.0044C228.426 31.2498 228.618 31.4223 228.863 31.522C229.116 31.6217 229.408 31.6715 229.738 31.6715C229.968 31.6715 230.198 31.6524 230.428 31.614C230.658 31.568 230.834 31.5335 230.957 31.5105L231.727 35.1565C231.482 35.2332 231.137 35.3214 230.692 35.421C230.247 35.5284 229.707 35.5936 229.07 35.6166C227.89 35.6626 226.854 35.5054 225.965 35.145C225.083 34.7846 224.397 34.2249 223.906 33.4658C223.416 32.7067 223.174 31.7482 223.182 30.5904V13.4761Z" fill="#FF9F43"/>
    <path d="M242.389 35.7201C240.603 35.7201 239.058 35.3405 237.754 34.5814C236.458 33.8147 235.458 32.7488 234.752 31.384C234.047 30.0115 233.694 28.4204 233.694 26.6108C233.694 24.7859 234.047 23.191 234.752 21.8262C235.458 20.4537 236.458 19.3879 237.754 18.6288C239.058 17.862 240.603 17.4786 242.389 17.4786C244.176 17.4786 245.717 17.862 247.013 18.6288C248.316 19.3879 249.321 20.4537 250.026 21.8262C250.732 23.191 251.084 24.7859 251.084 26.6108C251.084 28.4204 250.732 30.0115 250.026 31.384C249.321 32.7488 248.316 33.8147 247.013 34.5814C245.717 35.3405 244.176 35.7201 242.389 35.7201ZM242.412 31.9246C243.225 31.9246 243.904 31.6945 244.448 31.2345C244.992 30.7667 245.403 30.1303 245.679 29.3252C245.962 28.5201 246.104 27.6038 246.104 26.5763C246.104 25.5489 245.962 24.6326 245.679 23.8275C245.403 23.0224 244.992 22.3859 244.448 21.9182C243.904 21.4505 243.225 21.2166 242.412 21.2166C241.592 21.2166 240.902 21.4505 240.342 21.9182C239.79 22.3859 239.372 23.0224 239.088 23.8275C238.812 24.6326 238.674 25.5489 238.674 26.5763C238.674 27.6038 238.812 28.5201 239.088 29.3252C239.372 30.1303 239.79 30.7667 240.342 31.2345C240.902 31.6945 241.592 31.9246 242.412 31.9246Z" fill="#FF9F43"/>
    <path d="M262.252 35.7201C260.443 35.7201 258.886 35.3367 257.583 34.5699C256.287 33.7955 255.29 32.722 254.592 31.3495C253.902 29.977 253.557 28.3974 253.557 26.6108C253.557 24.8013 253.906 23.214 254.604 21.8492C255.309 20.4767 256.31 19.407 257.606 18.6403C258.902 17.8658 260.443 17.4786 262.229 17.4786C263.771 17.4786 265.12 17.7585 266.278 18.3182C267.436 18.878 268.352 19.6639 269.027 20.676C269.702 21.6882 270.074 22.8767 270.143 24.2415H265.519C265.389 23.3597 265.044 22.6505 264.484 22.1137C263.932 21.5693 263.207 21.2971 262.31 21.2971C261.551 21.2971 260.888 21.5041 260.32 21.9182C259.76 22.3246 259.323 22.9188 259.009 23.7009C258.695 24.4831 258.537 25.43 258.537 26.5418C258.537 27.669 258.691 28.6275 258.998 29.4172C259.312 30.207 259.753 30.8089 260.32 31.223C260.888 31.637 261.551 31.8441 262.31 31.8441C262.87 31.8441 263.372 31.729 263.817 31.499C264.269 31.269 264.641 30.9354 264.932 30.4984C265.231 30.0536 265.427 29.5207 265.519 28.8997H270.143C270.066 30.2492 269.698 31.4377 269.038 32.4651C268.387 33.4849 267.486 34.2824 266.336 34.8575C265.185 35.4325 263.824 35.7201 262.252 35.7201Z" fill="#FF9F43"/>
    <path d="M281.262 35.7201C279.475 35.7201 277.93 35.3405 276.627 34.5814C275.331 33.8147 274.33 32.7488 273.625 31.384C272.919 30.0115 272.566 28.4204 272.566 26.6108C272.566 24.7859 272.919 23.191 273.625 21.8262C274.33 20.4537 275.331 19.3879 276.627 18.6288C277.93 17.862 279.475 17.4786 281.262 17.4786C283.048 17.4786 284.589 17.862 285.885 18.6288C287.189 19.3879 288.193 20.4537 288.899 21.8262C289.604 23.191 289.957 24.7859 289.957 26.6108C289.957 28.4204 289.604 30.0115 288.899 31.384C288.193 32.7488 287.189 33.8147 285.885 34.5814C284.589 35.3405 283.048 35.7201 281.262 35.7201ZM281.285 31.9246C282.097 31.9246 282.776 31.6945 283.32 31.2345C283.865 30.7667 284.275 30.1303 284.551 29.3252C284.835 28.5201 284.977 27.6038 284.977 26.5763C284.977 25.5489 284.835 24.6326 284.551 23.8275C284.275 23.0224 283.865 22.3859 283.32 21.9182C282.776 21.4505 282.097 21.2166 281.285 21.2166C280.464 21.2166 279.774 21.4505 279.214 21.9182C278.662 22.3859 278.244 23.0224 277.961 23.8275C277.685 24.6326 277.547 25.5489 277.547 26.5763C277.547 27.6038 277.685 28.5201 277.961 29.3252C278.244 30.1303 278.662 30.7667 279.214 31.2345C279.774 31.6945 280.464 31.9246 281.285 31.9246Z" fill="#FF9F43"/>
    <path d="M298.042 11.8198V35.375H293.143V11.8198H298.042Z" fill="#FF9F43"/>
    <path d="M67.1688 16.0897C66.96 9.14761 62.4885 5.1514 58.7161 3.0179C56.1708 1.58182 53.3278 0.564304 50.3362 0.0186988C50.1686 -0.00796525 49.9964 -0.00609555 49.8297 0.0241987C49.663 0.0544929 49.5051 0.112603 49.3652 0.195123C49.089 0.359439 48.8992 0.608092 48.836 0.888509C48.7777 1.17059 48.853 1.46073 49.0455 1.69636C49.2381 1.93199 49.5325 2.09423 49.8653 2.14809C52.5371 2.65277 55.0753 3.57085 57.3518 4.85599C57.8665 5.1514 58.3471 5.45912 58.8084 5.78325C56.3628 4.8372 53.7006 4.35811 51.0111 4.38006C50.8023 4.38006 50.5936 4.38006 50.3848 4.38006C42.3594 4.56469 37.7616 8.22446 33.6396 8.22446C29.5177 8.22446 24.9442 4.577 16.9188 4.39237C16.71 4.39237 16.5012 4.39237 16.2925 4.39237C13.6135 4.3716 10.9618 4.84778 8.52434 5.78735C8.98071 5.46732 9.46137 5.16371 9.98086 4.87241C12.2543 3.58436 14.7913 2.66473 17.4625 2.1604C17.6686 2.12886 17.8623 2.05496 18.0267 1.94522C18.191 1.83548 18.3208 1.69328 18.4048 1.53113C18.4887 1.36898 18.5242 1.19187 18.508 1.01541C18.4919 0.838955 18.4246 0.668561 18.3122 0.51925C18.2233 0.399003 18.106 0.295624 17.9675 0.215637C17.8287 0.136545 17.6741 0.0795363 17.5111 0.0474189C17.3506 0.022344 17.186 0.022344 17.0256 0.0474189C14.0259 0.582536 11.1729 1.59176 8.61658 3.02201C6.09659 4.39642 4.01111 6.2693 2.54077 8.47841C1.07044 10.6875 0.259589 13.1663 0.178461 15.6999C0.149331 16.0172 0.134766 16.3372 0.134766 16.66C0.134766 23.442 6.69397 28.9399 16.2925 28.9399C16.5012 28.9399 16.71 28.9399 16.9188 28.9399C22.973 28.8004 27.0853 26.6833 30.513 25.6576L27.1484 33.1905C27.0761 33.3541 27.0511 33.5299 27.0756 33.7033C27.1014 33.876 27.1763 34.0407 27.2938 34.1836C27.4113 34.3265 27.568 34.4433 27.7504 34.5239C27.932 34.6035 28.1333 34.6457 28.3379 34.647H38.3394C38.5919 34.6459 38.8384 34.5818 39.048 34.4627C39.2576 34.3436 39.4209 34.1749 39.5174 33.9776C39.6138 33.7804 39.6392 33.5634 39.5903 33.3541C39.5414 33.1447 39.4203 32.9522 39.2424 32.8007C39.0017 32.5999 38.6776 32.4865 38.3394 32.4848H30.1974L33.4649 25.0996H33.6348C37.7373 25.0996 42.3739 28.7594 50.3751 28.9481H51.0014C60.6047 28.9481 67.1639 23.4502 67.1639 16.6682C67.1834 16.4671 67.1785 16.2784 67.1688 16.0897ZM17.4237 21.5424C12.4278 21.5424 8.94187 19.5361 8.94187 16.66C8.94187 13.7839 12.4278 11.7776 17.4237 11.7776C22.6235 11.7776 27.027 14.0136 27.027 16.66C27.027 19.3063 22.6235 21.5424 17.4237 21.5424ZM49.8799 21.5424C44.6801 21.5424 40.2765 19.3063 40.2765 16.66C40.2765 14.0136 44.6461 11.7776 49.8799 11.7776C54.8709 11.7776 58.3568 13.788 58.3568 16.66C58.3568 19.532 54.8709 21.5424 49.8799 21.5424Z" fill="#FF9F43"/>
</svg>
