<svg width="50" height="48" viewBox="0 0 50 48" fill="none" xmlns="http://www.w3.org/2000/svg">
<path fill-rule="evenodd" clip-rule="evenodd" d="M24.5938 2.15828C23.544 2.74766 7.32379 12.1413 6.86615 12.425C6.55013 12.6209 6.22587 12.9255 6.14573 13.1018C6.04693 13.3192 6 16.8489 6 24.071V34.7195L6.37736 35.1281C6.58485 35.3528 8.76162 36.6948 11.2145 38.1103C13.6674 39.5259 17.7423 41.8801 20.2701 43.342C22.9701 44.9036 25.0109 46 25.2173 46C25.6738 46 43.5347 35.6904 44.0452 35.1322L44.4225 34.7195V24.071C44.4225 16.7932 44.376 13.3201 44.2756 13.0991C44.0899 12.6907 44.9996 13.2431 34.5497 7.19428C29.0049 3.98473 25.4348 1.99753 25.2185 2C25.0259 2.00234 24.7447 2.07357 24.5938 2.15828ZM33.5819 9.61395L41.7467 14.339V23.9979V33.6568L33.5819 38.3819C29.0913 40.9806 25.3282 43.1082 25.2196 43.1096C25.0551 43.1118 17.4245 38.7527 10.3568 34.619L8.60724 33.5958V23.9966V14.3975L10.4941 13.2971C18.8722 8.41099 25.0391 4.88736 25.2113 4.88805C25.3245 4.88846 29.0913 7.01523 33.5819 9.61395ZM12.1631 18.8112C11.6568 19.2008 11.6262 19.4958 11.6262 23.9957C11.6262 29.3123 11.6385 29.3609 12.9856 29.3609C13.3604 29.3609 13.5895 29.265 13.8322 29.0064C14.1552 28.6621 14.1667 28.5741 14.2334 25.9623L14.302 23.2727L15.4458 26.0289C16.0748 27.5447 16.7272 28.9146 16.8954 29.073C17.1593 29.3213 17.3717 29.3609 18.4379 29.3609C19.5898 29.3609 19.6972 29.3366 20.0072 29.006L20.3398 28.6512V23.9979V19.3446L20.0072 18.9899C19.5398 18.4912 18.6701 18.4911 18.2024 18.9894C17.8787 19.3343 17.868 19.4179 17.8012 22.0921L17.7326 24.8403L16.5818 22.047C15.949 20.5107 15.3053 19.1146 15.1514 18.9443C14.8998 18.666 14.7465 18.6353 13.6263 18.6393C12.8645 18.6419 12.2964 18.7088 12.1631 18.8112ZM23.0053 18.9899L22.6726 19.3446V23.9979V28.6512L23.0053 29.006C23.2594 29.2772 23.47 29.3598 23.8972 29.3565C24.932 29.3484 25.2113 28.8836 25.2113 27.1698V25.9231H26.8641C28.4362 25.9231 28.5336 25.9066 28.8539 25.5855C29.3219 25.1165 29.3219 24.2545 28.8539 23.7855C28.5336 23.4644 28.4362 23.4479 26.8641 23.4479H25.2113V22.279V21.1102H27.5502C29.8508 21.1102 29.8948 21.1047 30.2261 20.7726C30.4741 20.5242 30.563 20.2865 30.563 19.8726C30.563 19.4586 30.4741 19.2209 30.2261 18.9725L29.8893 18.6349H26.6137H23.338L23.0053 18.9899ZM31.86 18.9988C31.4085 19.487 31.4158 20.1358 31.8788 20.687C32.2167 21.0894 32.2839 21.1102 33.251 21.1102H34.268V24.7611C34.268 29.2199 34.3097 29.3609 35.6275 29.3609C36.0022 29.3609 36.2313 29.265 36.474 29.0063L36.8066 28.6516L36.8471 24.8809L36.8876 21.1102H37.8343C38.6351 21.1102 38.8399 21.0594 39.163 20.781C39.6739 20.3405 39.6983 19.5018 39.2153 18.9864L38.8857 18.6349H35.5412H32.1966L31.86 18.9988Z" fill="white"/>
</svg>
