<svg width="44" height="44" viewBox="0 0 44 44" fill="none" xmlns="http://www.w3.org/2000/svg">
    <path fill-rule="evenodd" clip-rule="evenodd" d="M19.862 0.0446509C12.8709 0.805576 6.81207 4.65335 3.06737 10.7104C1.82594 12.7183 0.773204 15.5266 0.250976 18.2232C-0.0836586 19.9511 -0.0836586 24.0769 0.250976 25.8049C1.14922 30.4435 3.19785 34.3468 6.42861 37.5755C9.65094 40.7958 13.5772 42.8539 18.2067 43.7492C19.9358 44.0836 24.0642 44.0836 25.7933 43.7492C30.4277 42.8529 34.3241 40.8144 37.5591 37.5937C40.7729 34.3942 42.8527 30.4331 43.749 25.8049C44.0837 24.0769 44.0837 19.9511 43.749 18.2232C42.8479 13.57 40.7903 9.65105 37.5591 6.43435C34.3706 3.25997 30.6173 1.26296 26.1381 0.357706C24.851 0.0975854 21.0965 -0.0896137 19.862 0.0446509ZM25.8622 2.92018C33.6679 4.64329 39.4584 10.4733 41.1296 18.2921C41.484 19.9495 41.4836 24.0815 41.1291 25.7359C39.4415 33.6101 33.5976 39.4506 25.7243 41.1314C24.0678 41.4852 19.9322 41.4852 18.2757 41.1314C10.4055 39.4513 4.55777 33.6071 2.87094 25.7359C2.51603 24.0795 2.51603 19.9485 2.87094 18.2921C3.46104 15.5387 4.59681 12.9065 6.09742 10.8149C9.18844 6.50631 13.6646 3.70853 18.9654 2.77199C20.3711 2.52359 24.4638 2.61153 25.8622 2.92018ZM20.5181 5.2086C17.8168 5.45204 15.1041 6.39176 12.8182 7.87598C11.204 8.92404 8.90705 11.2166 7.86466 12.8201C4.22341 18.4215 4.22341 25.6065 7.86466 31.208C8.90126 32.8025 11.2047 35.1044 12.8002 36.1403C18.4007 39.7764 25.5993 39.7764 31.1998 36.1403C32.7953 35.1044 35.0987 32.8025 36.1353 31.208C39.7766 25.6065 39.7766 18.4215 36.1353 12.8201C35.0987 11.2256 32.7953 8.92363 31.1998 7.88769C29.0018 6.46068 26.2247 5.46211 23.9216 5.27077C23.3578 5.2239 22.6483 5.16491 22.3448 5.13968C22.0414 5.11431 21.2193 5.14547 20.5181 5.2086ZM23.642 7.81877C27.6016 8.33239 30.9965 10.2696 33.3474 13.3568C35.3615 16.0017 36.2468 18.6453 36.2468 22.014C36.2468 25.3686 35.3603 28.0277 33.3701 30.6416C31.2538 33.4213 28.3862 35.2355 24.855 36.0287C23.5307 36.3262 20.4815 36.3292 19.1723 36.0342C16.7432 35.4871 14.6636 34.4806 12.8871 32.9926C5.99604 27.2203 5.96942 16.8517 12.8308 11.0801C15.8689 8.52469 19.8428 7.32596 23.642 7.81877ZM21.2663 10.589C21.1282 10.6692 20.3667 12.0436 19.5737 13.6433C18.7808 15.2429 18.1074 16.5764 18.0774 16.6065C18.0471 16.6365 16.5821 16.8695 14.8214 17.1241C12.1008 17.5177 11.5721 17.6324 11.2998 17.8881C10.9035 18.2601 10.7586 18.8621 10.9638 19.2834C11.0492 19.4584 12.1487 20.5983 13.4074 21.8166L15.6957 24.0316L15.1925 26.9336C14.6568 30.0237 14.5982 30.7753 14.8662 31.124C15.0953 31.4222 15.5744 31.6634 15.9378 31.6634C16.1982 31.6634 20.2806 29.6375 21.5456 28.8804L21.9879 28.6157L22.7181 29.0174C25.0952 30.3248 27.7972 31.6634 28.0591 31.6634C28.4252 31.6634 28.904 31.4232 29.1338 31.124C29.4018 30.7753 29.3432 30.0237 28.8074 26.9336L28.3043 24.0316L30.5926 21.8166C31.8513 20.5983 32.9508 19.4584 33.0362 19.2834C33.2416 18.862 33.0965 18.2601 32.6997 17.8877C32.4273 17.6318 31.8946 17.5156 29.1717 17.1174C27.4078 16.8593 25.9468 16.6305 25.9253 16.6087C25.9036 16.5868 25.2314 15.2545 24.4315 13.6477C23.5893 11.9556 22.8625 10.6651 22.7046 10.5806C22.3578 10.395 21.5923 10.3994 21.2663 10.589ZM23.009 16.625C23.5199 17.6958 24.074 18.6602 24.2644 18.8099C24.5157 19.0073 25.1902 19.1623 26.8308 19.3996L29.0564 19.7215L27.447 21.3206C26.5617 22.2001 25.7755 23.0304 25.6996 23.1657C25.6019 23.3401 25.6658 24.0105 25.9189 25.4673C26.1153 26.5978 26.276 27.6214 26.276 27.7423C26.276 27.905 25.7617 27.6913 24.2909 26.9179C23.1989 26.3436 22.1681 25.8738 22 25.8738C21.8319 25.8738 20.8011 26.3436 19.7091 26.9179C18.2383 27.6913 17.724 27.905 17.724 27.7423C17.724 27.6214 17.8847 26.5978 18.0811 25.4673C18.3342 24.0105 18.3981 23.3401 18.3004 23.1657C18.2245 23.0304 17.4383 22.2001 16.553 21.3206L14.9436 19.7215L17.1692 19.3996C18.8098 19.1623 19.4843 19.0073 19.7356 18.8099C19.926 18.6602 20.4801 17.6958 20.991 16.625C21.4942 15.5707 21.9481 14.708 22 14.708C22.0519 14.708 22.5058 15.5707 23.009 16.625Z" fill="white"/>
</svg>
