<svg width="48" height="48" viewBox="0 0 48 48" fill="none" xmlns="http://www.w3.org/2000/svg">
    <path fill-rule="evenodd" clip-rule="evenodd" d="M16.3479 7.0345C10.9457 7.62249 6.26387 10.5958 3.37024 15.2762C2.41095 16.8278 1.59748 18.9978 1.19394 21.0815C0.935355 22.4168 0.935355 25.6049 1.19394 26.9401C1.88803 30.5245 3.47107 33.5407 5.96756 36.0356C8.45755 38.524 11.4915 40.1143 15.0688 40.8062C16.4049 41.0646 19.5951 41.0646 20.9312 40.8062C24.5123 40.1136 27.5232 38.5384 30.023 36.0497C32.5063 33.5773 34.1135 30.5165 34.8061 26.9401C35.0646 25.6049 35.0646 22.4168 34.8061 21.0815C34.1097 17.4859 32.5198 14.4576 30.023 11.972C27.5591 9.51907 24.6588 7.97592 21.1976 7.27641C20.2031 7.07541 17.3019 6.93075 16.3479 7.0345ZM20.9844 9.2565C27.0161 10.588 31.4906 15.093 32.782 21.1348C33.0558 22.4155 33.0555 25.6084 32.7815 26.8869C31.4776 32.9715 26.9618 37.4846 20.8779 38.7834C19.5979 39.0567 16.4021 39.0567 15.1221 38.7834C9.04058 37.4851 4.52192 32.9691 3.21846 26.8869C2.94421 25.6069 2.94421 22.4147 3.21846 21.1348C3.67444 19.0072 4.55208 16.9732 5.71164 15.357C8.10016 12.0276 11.559 9.86568 15.6551 9.14199C16.7413 8.95004 19.9039 9.018 20.9844 9.2565ZM16.8549 11.0248C14.7675 11.2129 12.6714 11.9391 10.905 13.086C9.65762 13.8958 7.88272 15.6674 7.07724 16.9064C4.26355 21.2348 4.26355 26.7868 7.07724 31.1153C7.87824 32.3474 9.65815 34.1261 10.891 34.9266C15.2187 37.7363 20.7813 37.7363 25.109 34.9266C26.3419 34.1261 28.1218 32.3474 28.9228 31.1153C31.7365 26.7868 31.7365 21.2348 28.9228 16.9064C28.1218 15.6743 26.3419 13.8955 25.109 13.095C23.4105 11.9923 21.2646 11.2207 19.4849 11.0729C19.0492 11.0367 18.501 10.9911 18.2665 10.9716C18.032 10.952 17.3967 10.976 16.8549 11.0248ZM19.2688 13.0418C22.3285 13.4387 24.9518 14.9356 26.7684 17.3212C28.3248 19.365 29.0089 21.4077 29.0089 24.0108C29.0089 26.603 28.3238 28.6577 26.786 30.6776C25.1506 32.8255 22.9348 34.2274 20.2061 34.8403C19.1828 35.0702 16.8266 35.0726 15.815 34.8446C13.938 34.4218 12.3309 33.6441 10.9582 32.4943C5.6333 28.0339 5.61273 20.0218 10.9147 15.5619C13.2623 13.5873 16.3331 12.661 19.2688 13.0418ZM17.4331 15.1824C17.3264 15.2444 16.7379 16.3064 16.1251 17.5425C15.5125 18.7786 14.9921 19.8091 14.9689 19.8323C14.9455 19.8555 13.8135 20.0355 12.4529 20.2323C10.3506 20.5364 9.9421 20.625 9.7317 20.8226C9.42547 21.1101 9.31345 21.5753 9.47205 21.9008C9.53802 22.0361 10.3876 22.9169 11.3602 23.8583L13.1285 25.5699L12.7397 27.8123C12.3257 30.2001 12.2804 30.7809 12.4875 31.0504C12.6646 31.2808 13.0347 31.4672 13.3156 31.4672C13.5168 31.4672 16.6714 29.9017 17.6489 29.3167L17.9906 29.1122L18.5549 29.4226C20.3917 30.4328 22.4797 31.4672 22.6821 31.4672C22.9649 31.4672 23.3349 31.2815 23.5125 31.0504C23.7196 30.7809 23.6743 30.2001 23.2603 27.8123L22.8715 25.5699L24.6398 23.8583C25.6124 22.9169 26.462 22.0361 26.528 21.9008C26.6867 21.5752 26.5745 21.1101 26.268 20.8223C26.0575 20.6246 25.6458 20.5348 23.5418 20.227C22.1788 20.0276 21.0498 19.8508 21.0332 19.834C21.0164 19.8171 20.497 18.7875 19.8789 17.546C19.2281 16.2384 18.6665 15.2412 18.5444 15.1759C18.2765 15.0325 17.6849 15.0359 17.4331 15.1824ZM18.7797 19.8466C19.1745 20.674 19.6026 21.4192 19.7497 21.5349C19.9439 21.6874 20.4652 21.8073 21.7329 21.9906L23.4527 22.2393L22.209 23.475C21.525 24.1546 20.9174 24.7962 20.8588 24.9008C20.7833 25.0356 20.8327 25.5536 21.0283 26.6793C21.18 27.5528 21.3042 28.3438 21.3042 28.4372C21.3042 28.5629 20.9067 28.3978 19.7702 27.8002C18.9265 27.3564 18.1299 26.9934 18 26.9934C17.8701 26.9934 17.0735 27.3564 16.2298 27.8002C15.0933 28.3978 14.6958 28.5629 14.6958 28.4372C14.6958 28.3438 14.82 27.5528 14.9717 26.6793C15.1673 25.5536 15.2167 25.0356 15.1412 24.9008C15.0826 24.7962 14.475 24.1546 13.791 23.475L12.5473 22.2393L14.2671 21.9906C15.5348 21.8073 16.0561 21.6874 16.2503 21.5349C16.3974 21.4192 16.8255 20.674 17.2203 19.8466C17.6091 19.0319 17.9599 18.3653 18 18.3653C18.0401 18.3653 18.3909 19.0319 18.7797 19.8466Z" fill="#212B36"/>
    <path fill-rule="evenodd" clip-rule="evenodd" d="M47.4142 0.585786C48.1953 1.36683 48.1953 2.63317 47.4142 3.41421L39.4142 11.4142C38.6332 12.1953 37.3668 12.1953 36.5858 11.4142L32.5858 7.41421C31.8047 6.63316 31.8047 5.36684 32.5858 4.58579C33.3668 3.80474 34.6332 3.80474 35.4142 4.58579L38 7.17157L44.5858 0.585786C45.3668 -0.195262 46.6332 -0.195262 47.4142 0.585786Z" fill="#212B36"/>
</svg>
