<svg width="14" height="13" viewBox="0 0 14 13" fill="none" xmlns="http://www.w3.org/2000/svg">
<path d="M6.86035 9.66175L7.84578 7.47525L10.0323 6.50001L7.84578 5.51458L6.86035 3.32809L5.88511 5.51458L3.69862 6.50001L5.88339 7.47698L6.86035 9.66175ZM1.52395 13C0.893919 13 0.360352 12.4665 0.360352 11.8364V1.1636C0.360352 0.847197 0.475187 0.574164 0.704857 0.344506C0.934515 0.114835 1.20755 0 1.52395 0H12.1967C12.8268 0 13.3604 0.53357 13.3604 1.1636V11.8364C13.3604 12.4665 12.8268 13 12.1967 13H1.52395ZM2.10654 11.4921H11.6142C11.7358 11.4921 11.8525 11.3755 11.8525 11.2538V1.74619C11.8525 1.62451 11.7358 1.5079 11.6142 1.5079H2.10654C1.98486 1.5079 1.86825 1.62451 1.86825 1.74619V11.2538C1.86825 11.3755 1.98486 11.4921 2.10654 11.4921Z" fill="#888888"/>
</svg>
