<svg width="16" height="15" viewBox="0 0 16 15" fill="none" xmlns="http://www.w3.org/2000/svg">
<path d="M5.69478 12.9545C4.17205 12.9545 2.88228 12.4261 1.82546 11.3693C0.768643 10.3125 0.240234 9.02273 0.240234 7.5C0.240234 5.97727 0.768643 4.6875 1.82546 3.63068C2.88228 2.57386 4.17205 2.04545 5.69478 2.04545C7.21751 2.04545 8.50728 2.57386 9.5641 3.63068C10.6209 4.6875 11.1493 5.97727 11.1493 7.5C11.1493 9.02273 10.6209 10.3125 9.5641 11.3693C8.50728 12.4261 7.21751 12.9545 5.69478 12.9545ZM5.69478 11.5909C6.83114 11.5909 7.79705 11.1932 8.59251 10.3977C9.38796 9.60227 9.78569 8.63636 9.78569 7.5C9.78569 6.36364 9.38796 5.39773 8.59251 4.60227C7.79705 3.80682 6.83114 3.40909 5.69478 3.40909C4.55842 3.40909 3.59251 3.80682 2.79705 4.60227C2.0016 5.39773 1.60387 6.36364 1.60387 7.5C1.60387 8.63636 2.0016 9.60227 2.79705 10.3977C3.59251 11.1932 4.55842 11.5909 5.69478 11.5909ZM5.01296 9.88636H6.3766V6.47727H7.74023V5.45455H3.64933V6.47727H5.01296V9.88636ZM12.513 5.45455L11.6607 3.57955L9.78569 2.72727L11.6607 1.875L12.513 0L13.3652 1.875L15.2402 2.72727L13.3652 3.57955L12.513 5.45455ZM12.513 15L11.6607 13.125L9.78569 12.2727L11.6607 11.4205L12.513 9.54545L13.3652 11.4205L15.2402 12.2727L13.3652 13.125L12.513 15Z" fill="#888888"/>
</svg>
