<svg width="48" height="48" viewBox="0 0 48 48" fill="none" xmlns="http://www.w3.org/2000/svg">
<g clip-path="url(#clip0_1_14665)">
<path fill-rule="evenodd" clip-rule="evenodd" d="M12 16C12 9.37258 17.3726 4 24 4C30.6274 4 36 9.37258 36 16C36 20.163 33.8802 23.8308 30.6611 25.983C30.547 26.042 30.4397 26.1115 30.3403 26.1902C28.5006 27.3372 26.3277 28 24 28C17.3726 28 12 22.6274 12 16ZM29.9722 30.8482C28.1269 31.5911 26.1112 32 24 32C21.8896 32 19.8747 31.5914 18.0299 30.849L16.5289 42.1503L22.971 38.285C23.6044 37.905 24.3956 37.905 25.029 38.285L31.4718 42.1507L29.9722 30.8482ZM14.279 28.7094C10.4617 25.7852 8 21.1801 8 16C8 7.16344 15.1634 0 24 0C32.8366 0 40 7.16344 40 16C40 21.1791 37.5393 25.7834 33.7233 28.7077L35.9826 45.737C36.0836 46.4982 35.7398 47.2501 35.098 47.6717C34.4561 48.0933 33.6295 48.1101 32.971 47.715L24 42.3324L15.029 47.715C14.3704 48.1101 13.5438 48.0933 12.9019 47.6716C12.26 47.2499 11.9163 46.498 12.0174 45.7367L14.279 28.7094Z" fill="white"/>
<path d="M23.9887 23L26.1669 18.1669L31 16.0113L26.1669 13.8331L23.9887 9L21.8331 13.8331L17 16.0113L21.8292 18.1708L23.9887 23Z" fill="white"/>
</g>
<defs>
<clipPath id="clip0_1_14665">
<rect width="48" height="48" fill="white"/>
</clipPath>
</defs>
</svg>
