<svg width="20" height="21" viewBox="0 0 20 21" fill="none" xmlns="http://www.w3.org/2000/svg">
    <path fill-rule="evenodd" clip-rule="evenodd" d="M10 0C11.0042 0 11.8182 0.800172 11.8182 1.78723V19.2128C11.8182 20.1998 11.0042 21 10 21C8.99585 21 8.18182 20.1998 8.18182 19.2128V1.78723C8.18182 0.800172 8.99585 0 10 0ZM1.81818 6.70213C2.82234 6.70213 3.63636 7.5023 3.63636 8.48936V19.2128C3.63636 20.1998 2.82234 21 1.81818 21C0.814028 21 0 20.1998 0 19.2128V8.48936C0 7.5023 0.814028 6.70213 1.81818 6.70213ZM18.1818 11.617C19.186 11.617 20 12.4172 20 13.4043V19.2128C20 20.1998 19.186 21 18.1818 21C17.1777 21 16.3636 20.1998 16.3636 19.2128V13.4043C16.3636 12.4172 17.1777 11.617 18.1818 11.617Z" fill="white"/>
</svg>
