<svg width="68" height="42" viewBox="0 0 68 42" fill="none" xmlns="http://www.w3.org/2000/svg">
    <path d="M67.243 16.3773C67.0342 9.4352 62.5627 5.439 58.7903 3.3055C56.245 1.86942 53.402 0.851902 50.4105 0.306296C50.2429 0.279632 50.0707 0.281502 49.9039 0.311796C49.7372 0.342091 49.5793 0.4002 49.4395 0.48272C49.1632 0.647037 48.9735 0.89569 48.9102 1.17611C48.852 1.45819 48.9272 1.74833 49.1198 1.98396C49.3123 2.21959 49.6067 2.38183 49.9395 2.43569C52.6113 2.94036 55.1495 3.85845 57.426 5.14359C57.9407 5.439 58.4213 5.74672 58.8826 6.07084C56.437 5.1248 53.7748 4.64571 51.0853 4.66766C50.8766 4.66766 50.6678 4.66766 50.459 4.66766C42.4336 4.85229 37.8358 8.51206 33.7139 8.51206C29.5919 8.51206 25.0184 4.8646 16.993 4.67997C16.7842 4.67997 16.5754 4.67997 16.3667 4.67997C13.6877 4.65919 11.036 5.13538 8.59856 6.07495C9.05493 5.75492 9.53558 5.45131 10.0551 5.16C12.3285 3.87195 14.8655 2.95232 17.5367 2.448C17.7428 2.41646 17.9366 2.34256 18.1009 2.23282C18.2652 2.12308 18.3951 1.98087 18.479 1.81873C18.5629 1.65658 18.5984 1.47947 18.5823 1.30301C18.5661 1.12655 18.4988 0.956159 18.3864 0.806848C18.2975 0.686601 18.1802 0.583222 18.0417 0.503235C17.9029 0.424142 17.7483 0.367134 17.5853 0.335017C17.4248 0.309942 17.2603 0.309942 17.0998 0.335017C14.1001 0.870134 11.2471 1.87936 8.6908 3.3096C6.17081 4.68402 4.08533 6.55689 2.61499 8.76601C1.14466 10.9751 0.333807 13.4539 0.25268 15.9875C0.22355 16.3048 0.208984 16.6248 0.208984 16.9476C0.208984 23.7296 6.76819 29.2275 16.3667 29.2275C16.5754 29.2275 16.7842 29.2275 16.993 29.2275C23.0473 29.088 27.1595 26.9709 30.5872 25.9452L27.2226 33.4781C27.1503 33.6417 27.1254 33.8175 27.1498 33.9909C27.1757 34.1636 27.2505 34.3283 27.368 34.4712C27.4856 34.6141 27.6422 34.7309 27.8247 34.8115C28.0062 34.8911 28.2075 34.9333 28.4121 34.9346H38.4136C38.6661 34.9335 38.9127 34.8694 39.1222 34.7503C39.3318 34.6312 39.4951 34.4625 39.5916 34.2652C39.688 34.068 39.7134 33.851 39.6645 33.6417C39.6156 33.4323 39.4946 33.2398 39.3166 33.0883C39.0759 32.8875 38.7518 32.7741 38.4136 32.7724H30.2716L33.5391 25.3872H33.709C37.8115 25.3872 42.4481 29.047 50.4493 29.2357H51.0756C60.6789 29.2357 67.2382 23.7378 67.2382 16.9558C67.2576 16.7547 67.2527 16.566 67.243 16.3773ZM17.4979 21.83C12.502 21.83 9.01609 19.8237 9.01609 16.9476C9.01609 14.0715 12.502 12.0652 17.4979 12.0652C22.6977 12.0652 27.1012 14.3012 27.1012 16.9476C27.1012 19.5939 22.6977 21.83 17.4979 21.83ZM49.9541 21.83C44.7543 21.83 40.3507 19.5939 40.3507 16.9476C40.3507 14.3012 44.7203 12.0652 49.9541 12.0652C54.9451 12.0652 58.431 14.0756 58.431 16.9476C58.431 19.8196 54.9451 21.83 49.9541 21.83Z" fill="#FF9F43"/>
    <path d="M20.7802 18.5431C21.1538 18.5431 21.5189 18.4495 21.8295 18.2741C22.1401 18.0988 22.3821 17.8495 22.5251 17.5579C22.668 17.2662 22.7054 16.9453 22.6326 16.6357C22.5597 16.3261 22.3798 16.0417 22.1157 15.8185C21.8516 15.5953 21.515 15.4433 21.1487 15.3817C20.7823 15.3202 20.4026 15.3518 20.0575 15.4726C19.7124 15.5934 19.4174 15.7979 19.2099 16.0604C19.0024 16.3229 18.8916 16.6314 18.8916 16.9471C18.8916 17.3704 19.0906 17.7763 19.4448 18.0757C19.799 18.375 20.2793 18.5431 20.7802 18.5431Z" fill="#FF9F43"/>
    <path d="M53.6733 18.5431C54.0468 18.5431 54.412 18.4495 54.7226 18.2741C55.0331 18.0988 55.2752 17.8495 55.4182 17.5579C55.5611 17.2662 55.5985 16.9453 55.5256 16.6357C55.4528 16.3261 55.2729 16.0417 55.0087 15.8185C54.7446 15.5953 54.4081 15.4433 54.0417 15.3817C53.6754 15.3202 53.2956 15.3518 52.9505 15.4726C52.6054 15.5934 52.3105 15.7979 52.103 16.0604C51.8954 16.3229 51.7847 16.6314 51.7847 16.9471C51.7847 17.3704 51.9836 17.7763 52.3378 18.0757C52.692 18.375 53.1724 18.5431 53.6733 18.5431Z" fill="#FF9F43"/>
    <path d="M47.7303 35.3816C42.2247 39.8948 28.4557 39.1357 28.31 39.1275C28.1401 39.1141 27.9686 39.1294 27.8058 39.1727C27.6429 39.2159 27.4919 39.2863 27.3617 39.3795C27.2314 39.4728 27.1245 39.5871 27.0473 39.7157C26.97 39.8444 26.9239 39.9847 26.9118 40.1286C26.9001 40.2676 26.9216 40.4071 26.9749 40.5389C27.0274 40.6741 27.1111 40.7992 27.2211 40.9069C27.3311 41.0146 27.4652 41.1029 27.6157 41.1667C27.7668 41.2315 27.9321 41.2692 28.1013 41.2774C28.2518 41.2774 29.2616 41.3431 30.7861 41.3431C35.3984 41.3431 44.7445 40.8261 49.5024 36.9325C49.6517 36.808 49.7627 36.6545 49.8258 36.4855C49.8889 36.3164 49.9021 36.1369 49.8642 35.9626C49.8264 35.7882 49.7387 35.6243 49.6088 35.4852C49.4789 35.346 49.3107 35.2358 49.1189 35.1642C48.9661 35.1061 48.8008 35.0753 48.6334 35.0739C48.2945 35.069 47.9668 35.1766 47.7206 35.3734L47.7303 35.3816Z" fill="#FF9F43"/>
</svg>
